<?xml version="1.0" standalone="no"?>
<!DOCTYPE svg PUBLIC "-//W3C//DTD SVG 1.1//EN" "http://www.w3.org/Graphics/SVG/1.1/DTD/svg11.dtd" >
<!--
2013-9-30: Created.
-->
<svg>
<metadata>
Created by iconfont
</metadata>
<defs>

<font id="iconfont" horiz-adv-x="1024" >
  <font-face
    font-family="iconfont"
    font-weight="500"
    font-stretch="normal"
    units-per-em="1024"
    ascent="896"
    descent="-128"
  />
    <missing-glyph />
    
    <glyph glyph-name="x" unicode="x" horiz-adv-x="1001"
d="M281 543q-27 -1 -53 -1h-83q-18 0 -36.5 -6t-32.5 -18.5t-23 -32t-9 -45.5v-76h912v41q0 16 -0.5 30t-0.5 18q0 13 -5 29t-17 29.5t-31.5 22.5t-49.5 9h-133v-97h-438v97zM955 310v-52q0 -23 0.5 -52t0.5 -58t-10.5 -47.5t-26 -30t-33 -16t-31.5 -4.5q-14 -1 -29.5 -0.5
t-29.5 0.5h-32l-45 128h-439l-44 -128h-29h-34q-20 0 -45 1q-25 0 -41 9.5t-25.5 23t-13.5 29.5t-4 30v167h911zM163 247q-12 0 -21 -8.5t-9 -21.5t9 -21.5t21 -8.5q13 0 22 8.5t9 21.5t-9 21.5t-22 8.5zM316 123q-8 -26 -14 -48q-5 -19 -10.5 -37t-7.5 -25t-3 -15t1 -14.5
t9.5 -10.5t21.5 -4h37h67h81h80h64h36q23 0 34 12t2 38q-5 13 -9.5 30.5t-9.5 34.5q-5 19 -11 39h-368zM336 498v228q0 11 2.5 23t10 21.5t20.5 15.5t34 6h188q31 0 51.5 -14.5t20.5 -52.5v-227h-327z" />
    

    
    <glyph glyph-name="shixinjiantoushang" unicode="&#58949;" d="M512 460 256 140 768 140Z"  horiz-adv-x="1024" />

    
    <glyph glyph-name="shixinjiantouxia" unicode="&#58950;" d="M256 460 512 140 768 460Z"  horiz-adv-x="1024" />

    
    <glyph glyph-name="v" unicode="&#58970;" d="M153.136238 619.990918 64.004221 619.990918 64.004221 711.429467l267.457448 0 0-365.725542L687.978479 711.429467l267.453355 0L153.136238-111.428444 153.136238 619.990918 153.136238 619.990918zM153.136238 619.990918"  horiz-adv-x="1024" />

    
    <glyph glyph-name="tuichu" unicode="&#58925;" d="M822.751 602.223c-13.447 13.447-35.242 13.447-48.707 0-13.465-13.483-13.465-35.277 0-48.725 144.48-144.497 144.48-379.592 0-524.09-144.443-144.461-379.574-144.461-524.089 0-144.479 144.498-144.479 379.593 0 524.09 13.466 13.447 13.466 35.241 0 48.725-13.465 13.447-35.258 13.447-48.706 0C118.232 519.206 72.496 408.856 72.496 291.472S118.232 63.702 201.249-19.279c85.659-85.715 198.195-128.535 310.75-128.535s225.09 42.82 310.752 128.535c83.018 82.98 128.752 193.367 128.752 310.751S905.769 519.206 822.751 602.223zM511.999 136.042c19.041 0 34.457 15.452 34.457 34.476L546.456 713.375c0 19.023-15.416 34.438-34.457 34.438S477.542 732.398 477.542 713.375l0-542.857C477.542 151.494 492.958 136.042 511.999 136.042z"  horiz-adv-x="1024" />

    
    <glyph glyph-name="mendian" unicode="&#58933;" d="M491.725775 274.998563c-12.749896 0-22.950435-11.472105-22.950435-24.22667l0-316.19648c0-14.024574 10.200539-24.225113 22.950435-24.225113L862.745873-89.6497c12.748339 0 22.950435 11.47833 22.950435 24.225113L885.696308 250.771893c0 14.024574-10.202096 24.22667-22.950435 24.22667L491.725775 274.998563 491.725775 274.998563 491.725775 274.998563 491.725775 274.998563zM514.867645-39.594842c-0.31439 0.014007-0.627223 0.029571-0.941612 0.045135 7.13135 89.569885 0.638117 176.848773 1.170401 266.121389 57.679582-2.300335 115.41675-2.625619 173.133685-2.119795 49.563041 0.432675 100.973509 7.982692 150.220604 1.621752-3.469179-85.847015-9.925059-180.303945 0.775079-265.494167C731.738827-46.201691 622.409093-44.270219 514.867645-39.594842zM24.384199 666.864865c-12.183372-90.639121-48.500031-202.426384 3.206151-275.784976 5.506486-7.81149 0.03891-46.148335 0.040466-55.052406 0-31.463854 0-62.927708 0-94.391562 0-142.30328 0-284.603446 0-426.906726 0-14.02613 10.202096-25.498235 22.973781-25.498235 128.431231 0 256.879582 0.622554 385.310814-0.189879 166.498821-1.053672 338.760932 13.663493 504.462885-0.684809 87.834517-7.607604 60.040616 108.479948 59.987699 170.274608-0.115172 125.293561-0.308164 250.587123-0.042022 375.880684 0.032684 15.328824-3.693299 36.663732-0.649012 51.450934 6.7656 32.84281 23.719288 59.841399 23.719288 94.326194-0.004669 64.672414-15.492244 127.864707-16.293782 192.513776-0.603877 48.954495 19.910817 122.958986-42.055045 135.382041-47.131969 9.448806-102.878523-1.674669-150.832263-1.293355-50.83305 0.40466-101.676994 0.837334-152.503819 1.238881-165.905839 1.313588-334.301892 7.042636-499.952485-0.462246-27.69118-1.254445-59.500551 7.151583-86.222104 3.232609-48.397309-7.098666-47.186443-60.154232-47.581764-100.136174C27.816025 696.927973 26.446407 682.199914 24.384199 666.864865zM953.634015 759.541292c0.177428-0.035797 0.356412-0.071594 0.535396-0.108947 0.873131-22.821255 6.026318-48.24634-0.023346-70.591342-75.036374-7.562469-151.638469-0.983635-226.900519-0.745508-141.050391 0.448239-282.107007 0.003113-423.157397 0.001556-74.707977 0-155.923194-11.735134-229.639754 1.005424-3.100316 0.642786-0.004669 63.196962-0.390652 69.996803 59.109899 16.352924 132.705061 4.9493 193.545658 4.339198 72.209981-0.726831 144.409067-2.664529 216.628386-2.664529 82.149047 0 164.296538-0.009338 246.444029-0.001556C802.390867 760.775504 883.159402 773.839789 953.634015 759.541292zM378.332323 637.155055c71.676141 11.450315 148.662664 6.046551 220.936456 4.5104 81.856447-1.740037 54.381605-87.21352 54.381605-144.423074 0-11.911005 8.239496-66.698826 0-75.621574-15.302365-16.572374-35.700331-25.498235-57.372974-25.498235-24.22667 0-47.178661 11.472105-62.4748 31.876296L514.67621 452.219312c0 0-17.840827-24.209549-17.850165-24.220444C476.773596 400.790167 431.744301 384.82167 400.920121 402.354333 336.499841 439.018065 367.459427 580.353274 378.332323 637.155055zM959.649438 412.696503c-8.924304-10.19587-21.6742-16.573931-39.524365-16.573931-24.22667 0-47.178661 11.472105-62.481026 31.876296l-17.850165 24.220444c0 0-17.850165-24.220444-17.850165-24.222-23.47338-31.309772-77.999728-46.294635-109.021569-16.147481-22.653166 22.027499-14.659579 68.555592-12.804369 96.413305 2.863746 42.979537-1.85054 86.477351 2.803047 129.24522 22.900631 3.556337 256.85468 4.561761 257.62509 1.115927 11.328917-50.671186 19.496819-106.372604 19.496819-158.354265 0-22.950435-3.824035-49.726461-16.572374-66.298835C960.919447 413.972737 959.649438 413.972737 959.649438 412.696503zM190.826991-162.315701c0.006226 67.358733-1.433429 134.70657-2.006179 202.060634-0.504268 59.296665-9.559309 129.396189 3.48163 187.550468 12.486867-1.019431 160.452271-1.005424 160.452271-0.745508-0.035797-113.231587-0.001556-226.464731-0.001556-339.697875 0-15.968497-0.001556-31.936995 0.001556-47.902379C302.85705-160.98655 238.372958-149.901985 190.826991-162.315701zM79.326102-158.192841c-18.897612 20.604965-5.417772 81.675907-5.767958 105.253564-1.196859 80.70628 1.083243 161.308282 1.400745 242.044133 0.214781 54.325575 2.44041 109.415334-0.490261 163.652196 11.374052-3.76178 22.844601-5.083149 34.761831-5.083149 29.32227 0 58.649209 11.472105 81.594975 30.598505 22.950435-20.396409 51.001139-30.598505 81.599644-30.598505 30.598505 0 58.650765 11.472105 81.6012 30.598505 22.950435-20.396409 51.001139-30.598505 81.6012-30.598505 29.320714 0 58.649209 11.472105 80.323409 30.598505 22.950435-20.396409 50.99647-30.598505 81.6012-30.598505 29.32227 0 58.64454 11.472105 81.594975 30.598505 22.950435-20.396409 51.002696-30.598505 81.6012-30.598505 29.328495 0 58.649209 11.472105 81.607426 30.590723-3.858275-3.213932 52.117066-26.875635 56.249265-27.697405 20.42598-4.063718 39.20842-0.95095 59.576814 0.199217 2.090223-130.546357-4.849692-261.277923-4.037259-391.85852 0.228788-36.984347-6.328256-85.384769 4.675377-120.84386-129.808631-6.381173-260.149545-0.392209-390.05934-0.384427-55.425938 0.003113-114.188763-5.755507-169.239613 0.874688-14.738954 123.741847-0.868462 251.919387-0.868462 376.328923 0 11.963922 0 23.926287 0 35.890209 0 14.024574-10.202096 24.22667-22.950435 24.22667l-209.097045 0c-12.698535 0-22.871059-11.381834-22.950435-24.078813-0.442013-70.936859-0.340848-141.875274-0.20233-212.813689 0.127623-65.251389 7.17026-134.789059-0.583644-199.606217-14.573977-1.59685-48.526489-8.269067-60.47796 0.543178C81.287145-160.14299 80.266158-159.216941 79.326102-158.192841zM64.607381 421.620807c-10.202096 16.5786-12.754565 39.524365-12.754565 59.928557 0 52.657132 9.682263 106.710339 19.268031 158.362047 85.935729-2.743905 172.736808-2.041975 258.684988-0.264585-0.03424-45.432398-0.010895-90.86324-0.006226-136.295638 0.001556-14.717165 9.103289-70.594454 0.001556-80.454145-15.297696-16.572374-35.700331-25.496679-57.374531-25.496679-24.220444 0-47.170879 11.472105-62.473244 31.874739l-19.1264 22.944209-17.850165-24.220444c-15.29614-20.404191-38.246574-31.876296-62.4748-31.876296-16.572374 0-28.044479 5.101826-35.698774 14.02613C70.979216 415.248972 68.431416 419.073007 64.607381 421.620807zM64.607381 421.620807"  horiz-adv-x="1024" />

    
    <glyph glyph-name="mibao" unicode="&#59128;" d="M789.572318 261.79384c-93.243661 0-169.105443-75.860758-169.105443-169.104419 0-93.238544 75.861782-169.09214 169.105443-169.09214 93.241614 0 169.099303 75.853595 169.099303 169.09214C958.671621 185.933081 882.813932 261.79384 789.572318 261.79384zM806.631856-30.799078l-33.958416 0 0 33.961486 33.958416 0L806.631856-30.799078zM860.469018 120.61033c-4.969175-8.948813-14.68956-19.825534-29.153994-32.637328-9.718339-8.610098-16.066931-14.96483-19.048845-19.046798-2.982938-4.088108-5.191232-8.782014-6.628978-14.08274-1.435699-5.300726-2.263553-13.912871-2.483564-25.840528l-28.658713 0c-0.109494 3.974521-0.164752 6.958482-0.164752 8.945743 0 11.70253 1.656733 21.807678 4.967128 30.3134 2.430352 6.404873 6.349615 12.862959 11.760858 19.379373 3.977591 4.749164 11.125385 11.678994 21.454638 20.789489 10.324136 9.110495 17.032932 16.370853 20.126386 21.782096 3.089361 5.41022 4.637624 11.319813 4.637624 17.724687 0 11.594059-4.529153 21.784142-13.583366 30.56411-9.057283 8.779967-20.154016 13.168927-33.296337 13.168927-12.69923 0-23.301705-3.975545-31.80538-11.92868-8.506744-7.949043-14.07967-20.374026-16.73208-37.265742l-30.643927 3.6399c2.75781 22.638603 10.958586 39.975457 24.600281 52.017724 13.636578 12.033058 31.664164 18.054191 54.084803 18.054191 23.741727 0 42.680055-6.461155 56.819077-19.381419 14.134929-12.919241 21.202904-28.547173 21.202904-46.87868C867.92278 139.326601 865.439216 129.553003 860.469018 120.61033zM657.822668 234.799022c-36.192294 38.239929-82.756819 67.775616-135.781476 85.658915 46.920636 36.143175 77.158311 92.882434 77.158311 156.691715 0 109.184725-88.512916 197.693548-197.698664 197.693548-109.181655 0-197.693548-88.509846-197.693548-197.693548 0-63.879889 30.30419-120.671337 77.308737-156.811442-125.644605-42.522466-214.97412-150.504806-215.712947-284.603967-0.039909-0.686638-0.074701-1.372254-0.074701-2.067079 0-16.866133 13.670348-30.53341 30.532387-30.53341 16.863063 0 30.529317 13.666254 30.529317 30.53341 0 1.133823-0.065492 2.25025-0.181125 3.349281 3.723811 140.203182 125.653815 242.047732 275.517007 242.047732 88.481194 0 167.205163-35.55989 217.635739-93.501534C629.057531 204.281985 642.15278 220.964946 657.822668 234.799022zM401.500838 340.48097c-75.474972 0-136.663566 61.188594-136.663566 136.667659 0 75.474972 61.188594 136.661519 136.663566 136.661519 75.479065 0 136.663566-61.186548 136.663566-136.661519C538.164405 401.670587 476.979904 340.48097 401.500838 340.48097z"  horiz-adv-x="1024" />

    
    <glyph glyph-name="iconfont02" unicode="&#58882;" d="M506.304 745.056c3.136 6.336 8.192 6.336 11.328 0l137.024-277.568c3.136-6.336 11.392-12.288 18.304-13.312l306.368-44.544c6.976-1.024 8.512-5.888 3.52-10.752l-221.696-216.064c-5.056-4.928-8.192-14.592-6.976-21.568l52.352-305.088c1.216-6.912-2.944-9.92-9.152-6.656l-273.984 144.064c-6.208 3.264-16.448 3.264-22.656 0L226.688-150.56c-6.208-3.264-10.368-0.256-9.152 6.656l52.352 305.088c1.216 6.912-1.984 16.64-6.976 21.568L41.152 398.816C36.096 403.744 37.696 408.608 44.672 409.632l306.368 44.544c6.976 1.024 15.232 6.976 18.304 13.312L506.304 745.056z"  horiz-adv-x="1024" />

    
    <glyph glyph-name="warn2" unicode="&#59163;" d="M510.775-160.037c-247.081 0-447.392 200.447-447.392 447.694 0 247.25 200.311 447.699 447.392 447.699 247.076 0 447.386-200.448 447.386-447.699 0-247.247-200.31-447.694-447.386-447.694v0zM510.775 675.662c-214.151 0-387.74-173.706-387.74-388.005 0-214.295 173.589-388.002 387.74-388.002 214.146 0 387.736 173.707 387.736 388.002 0 214.299-173.591 388.005-387.736 388.005v0zM510.775 19.041c-32.96 0-59.653 26.71-59.653 59.693 0 32.978 26.693 59.694 59.653 59.694 32.956 0 59.652-26.715 59.652-59.694 0-32.983-26.696-59.693-59.652-59.693v0zM510.775 198.12c-16.465 0-29.827 26.71-29.827 59.693l-29.825 268.616c0 32.982 26.693 59.693 59.653 59.693 32.956 0 59.652-26.71 59.652-59.693l-29.827-268.616c-0.001-32.983-13.363-59.693-29.824-59.693v0zM510.775 198.12z"  horiz-adv-x="1024" />

    
    <glyph glyph-name="paixing" unicode="&#58912;" d="M480 172l0-256 64 0 0 256L480 172zM192 108l0-32L128 76l0-96 0-64 64 0 64 0 0 64L192-20l0 32 64 0 0 96 0 64L192 172 128 172l0-64L192 108zM832 108l0-32-64 0 0-64 64 0 0-32-64 0 0-64 128 0 0 32 0 32 0 32 0 32 0 32 0 32 0 64-64 0-64 0 0-64L832 108zM128 556c-70.72 0-128-57.28-128-128l0-512c0-70.72 57.28-128 128-128l128 0c38.08 0 72.64 16.64 96 43.488C375.36-195.36 409.92-212 448-212l128 0c38.048 0 72.64 16.64 96 43.488C695.36-195.36 729.952-212 768-212l128 0c70.72 0 128 57.28 128 128l0 256c0 70.72-57.28 128-128 128l-128 0c-23.36 0-45.12-6.08-64-16.96L704 684c0 70.72-57.28 128-128 128l-128 0c-70.72 0-128-57.28-128-128l0-144.96C301.12 549.92 279.36 556 256 556L128 556zM384-84 384 428 384 684c0 35.2 28.8 64 64 64l128 0c35.2 0 64-28.8 64-64l0-512 0-256c0-35.2-28.8-64-64-64l-128 0C412.8-148 384-119.2 384-84zM128 492l128 0c35.2 0 64-28.8 64-64l0-512c0-35.2-28.8-64-64-64L128-148c-35.2 0-64 28.8-64 64L64 428C64 463.2 92.8 492 128 492zM768 236l128 0c35.2 0 64-28.8 64-64l0-256c0-35.2-28.8-64-64-64l-128 0c-35.2 0-64 28.8-64 64l0 256C704 207.2 732.8 236 768 236z"  horiz-adv-x="1024" />

    
    <glyph glyph-name="tubiao05" unicode="&#58894;" d="M519.300096-47.259648c-3.50208 0-6.928384 0.856064-10.103808 2.591744-1.05984 0.5888-2.040832 1.260544-3.017728 2.016256-1.711104 1.222656-6.765568 4.770816-14.265344 9.987072-32.771072 22.77888-109.476864 76.112896-160.014336 115.177472C143.276032 229.300224 43.094016 338.08384 25.485312 415.094784c-8.96512 27.549696-13.939712 58.446848-14.265344 90.094592-1.139712 84.527104 30.73024 166.066176 87.302144 223.652864 51.108864 51.969024 118.032384 80.741376 188.461056 81.02912l0 0c89.422848 0 169.633792-40.41216 222.6176-109.539328 51.764224 71.325696 131.80928 113.695744 219.845632 114.87744l5.380096 0.058368c151.207936 0 275.926016-133.499904 277.966848-297.566208 0.40448-31.710208-3.831808-62.76608-12.55424-92.27776-15.08352-75.52-115.018752-190.214144-296.798208-339.038208-71.647232-59.160576-129.851392-103.053312-172.973056-130.402304C527.046656-46.179328 523.131904-47.259648 519.300096-47.259648L519.300096-47.259648zM290.000896 768.152576c-62.031872-0.263168-118.44096-24.594432-161.72544-68.571136-48.826368-49.702912-76.297216-120.356864-75.32032-193.903616 0.24576-27.470848 4.566016-54.21056 12.717056-79.51872 10.921984-47.361024 69.940224-137.965568 291.739648-310.67136 49.723392-38.375424 125.77792-91.27936 158.303232-113.880064 1.46944-0.997376 2.770944-1.932288 4.077568-2.808832 40.349696 26.715136 93.08672 66.960384 157.159424 119.826432C893.85984 296.223744 950.432768 388.946944 959.727616 435.452928c8.067072 27.308032 11.657216 54.18496 11.331584 81.697792-1.795072 141.366272-107.76576 256.380928-236.23168 256.380928l-4.644864-0.058368c-83.959808-1.122304-159.363072-46.422016-201.91232-121.191424-3.668992-6.418432-10.517504-10.433536-17.854464-10.537984-0.162816 0-0.241664 0-0.325632 0-7.254016 0-14.01856 3.810304-17.850368 10.066944C448.221184 724.663296 372.658176 768.152576 290.000896 768.152576L290.000896 768.152576zM519.296-53.520384c-4.585472 0-8.986624 1.140736-13.082624 3.342336-1.487872 0.856064-2.710528 1.671168-3.933184 2.649088-1.446912 1.01888-6.480896 4.524032-13.938688 9.741312-33.258496 23.109632-109.881344 76.379136-160.278528 115.38432C138.29632 225.240064 37.31968 335.162368 19.386368 413.702144c-9.068544 27.73504-14.102528 59.526144-14.42816 91.418624C3.796992 591.241216 36.25984 674.4064 94.0544 733.218816c52.291584 53.168128 120.804352 82.615296 192.904192 82.899968 87.343104 0 167.960576-38.352896 222.49472-105.521152 53.351424 69.409792 133.031936 109.698048 219.906048 110.860288l5.400576 0.06144c154.694656 0 282.20416-136.251392 284.28288-303.744 0.428032-32.300032-3.892224-63.968256-12.797952-94.129152-15.3856-77.113344-115.975168-192.395264-298.832896-342.096896-71.896064-59.383808-130.321408-103.401472-173.585408-130.87232C529.465344-52.052992 524.45184-53.520384 519.296-53.520384zM286.979072 803.607552c-68.716544-0.285696-134.071296-28.387328-183.999488-79.151104-55.450624-56.469504-86.629376-136.353792-85.50912-219.193344 0.325632-30.649344 5.15584-61.156352 13.959168-88.240128 17.44384-76.1344 116.932608-183.754752 304.314368-329.56416 50.131968-38.760448 126.57152-91.908096 159.218688-114.610176 8.049664-5.583872 13.123584-9.16992 14.856192-10.3936 0.97792-0.774144 1.712128-1.263616 2.486272-1.712128 4.442112-2.323456 10.3936-2.241536 14.815232 0.529408 42.835968 27.144192 100.813824 70.877184 172.321792 129.934336C877.492224 236.978176 979.385344 352.953344 994.0992 426.642432c8.681472 29.508608 12.818432 59.933696 12.43136 90.970112-1.9968 160.6656-123.882496 291.39456-271.709184 291.39456l-5.298176-0.06144c-85.590016-1.161216-163.905536-42.082304-214.852608-112.28672l-4.931584-6.806528-5.11488 6.664192C452.4544 764.581888 373.14048 803.607552 286.979072 803.607552zM519.805952-8.686592l-6.460416 4.320256c-47.29856 32.850944-113.896448 79.476736-159.768576 114.894848C174.3872 250.0608 75.4688 355.765248 59.573248 424.747008c-8.25344 25.534464-12.635136 52.923392-12.878848 80.862208-0.9984 75.136 27.103232 147.439616 77.113344 198.345728 45.097984 45.831168 102.545408 70.183936 166.167552 70.449152l0.02048 0c84.836352 0 162.438144-44.608512 207.597568-119.35744 2.649088-4.340736 7.438336-7.051264 12.491776-7.051264 5.380096 0.08192 10.189824 2.893824 12.736512 7.376896 43.651072 76.725248 121.151488 123.209728 207.271936 124.350464l4.645888 0.06144c131.951616 0 240.733184-117.788672 242.567168-262.55872 0.346112-28.693504-3.443712-56.020992-11.575296-83.552256-9.373696-46.993408-66.515968-141.16352-284.812288-319.884288-64.498688-53.188608-117.543936-93.66016-157.669376-120.193024L519.805952-8.686592zM290.015232 761.89184c-60.198912-0.265216-114.589696-23.333888-157.282304-66.699264-47.685632-48.541696-74.483712-117.584896-73.526272-189.44 0.244736-26.71616 4.422656-52.841472 12.41088-77.683712 10.637312-45.954048 69.368832-136.129536 289.642496-307.636224 45.627392-35.214336 112.041984-81.759232 158.016512-113.672192l0.570368-0.366592c39.330816 26.329088 90.827776 65.700864 153.125888 117.055488 215.443456 176.417792 271.505408 267.69408 280.613888 313.220096 7.907328 26.85952 11.534336 52.984832 11.208704 80.39424-1.752064 137.96352-104.909824 250.20928-229.972992 250.20928l-4.564992-0.06144c-81.637376-1.1008-155.122688-45.21984-196.552704-118.033408-4.748288-8.31488-13.654016-13.572096-23.211008-13.694976-9.781248 0-18.666496 4.993024-23.59808 13.063168C444.017664 719.524864 370.409472 761.87136 290.015232 761.89184L290.015232 761.89184z"  horiz-adv-x="1024" />

    
    <glyph glyph-name="baobeibaby137" unicode="&#58896;" d="M510.784 880.352c-269.408 0-488.64-219.232-488.64-488.64 0-232.576 163.424-427.616 381.472-476.672-25.184 24.32-42.848 56.256-49.312 92.096-151.648 61.92-258.816 210.912-258.816 384.576 0 167.84 100.128 312.64 243.744 378.016-5.696-32.416 18.624-69.76 46.304-103.264 25.056-30.304 14.304-53.184-5.024-69.184-6.08-5.024-8.384-13.312-5.76-20.768 2.624-7.424 9.6-12.448 17.472-12.576 248.864-3.712 309.376 137.792 323.136 188.928 125.696-71.456 210.656-206.528 210.656-361.152 0-164.448-96.096-306.88-235.072-374.112-4.288-36.416-20.096-69.248-43.616-94.944 203.136 59.264 352.032 247.04 352.032 469.056C999.424 661.12 780.224 880.352 510.784 880.352zM380.512 403.52m-55.008 0a1.719 1.719 0 1 0 110.016 0 1.719 1.719 0 1 0-110.016 0ZM637.216 403.52m-55.008 0a1.719 1.719 0 1 0 110.016 0 1.719 1.719 0 1 0-110.016 0ZM359.68 89.6c12.672 39.36 39.328 72.352 73.984 93.408 2.752 44.992 39.616 80.672 84.8 80.672 43.776 0 79.808-33.408 84.512-76.384 38.4-20.864 67.872-56.096 81.312-98.4 22.016 22.944 34.944 50.784 34.944 80.8 0 78.528-88.16 142.144-196.864 142.144-108.736 0-196.896-63.616-196.896-142.144C325.472 139.968 338.112 112.448 359.68 89.6zM540.8 94.752c-5.952 1.984-12.352 3.104-18.944 3.104-7.2 0-14.048-1.344-20.448-3.648 5.696-1.472 4.704-1.728-1.216-0.416-22.592-8.768-38.72-30.656-38.72-56.32 0-0.992 0.096-2.016 0.16-3.008 19.136-4.48 39.488-6.912 60.704-6.912 20.8 0 40.832 2.368 59.68 6.656 0.032 1.088 0.16 2.144 0.16 3.264C582.208 64.16 564.8 86.784 540.8 94.752zM520.064 238.464c-30.688 0-56.928-18.88-67.872-45.6 21.28 9.6 44.832 15.072 69.696 15.072 23.104 0 45.12-4.704 65.216-13.056C575.648 220.512 549.984 238.464 520.064 238.464zM521.888 189.536c-83.84 0-152.064-68.224-152.064-152.064 0-83.808 68.224-152.064 152.064-152.064 83.808 0 152.032 68.224 152.032 152.064C673.92 121.344 605.696 189.536 521.888 189.536zM521.888-41.216c-43.424 0-78.72 35.296-78.72 78.688 0 43.392 35.328 78.72 78.72 78.72 43.392 0 78.688-35.328 78.688-78.72C600.576-5.92 565.28-41.216 521.888-41.216z"  horiz-adv-x="1024" />

    
    <glyph glyph-name="erweima" unicode="&#58897;" d="M936.631 364.234 85.695 364.234c-13.807 0-25 11.192-25 25s11.193 25 25 25l850.936 0c13.807 0 25-11.193 25-25S950.438 364.234 936.631 364.234zM513.278 23.412c-13.807 0-25 11.193-25 25L488.278 262.369c0 13.807 11.193 25 25 25 13.807 0 25-11.193 25-25l0-213.957C538.278 34.605 527.085 23.412 513.278 23.412zM662.581-66.123c-13.807 0-25 11.193-25 25L637.581 187.713c0 13.807 11.193 25 25 25s25-11.193 25-25l0-228.836C687.581-54.93 676.388-66.123 662.581-66.123zM787.001-66.123c-13.807 0-25 11.193-25 25L762.001 187.713c0 13.807 11.193 25 25 25s25-11.193 25-25l0-228.836C812.001-54.93 800.808-66.123 787.001-66.123zM911.42-66.123c-13.807 0-25 11.193-25 25L886.42 262.369c0 13.807 11.193 25 25 25s25-11.193 25-25l0-303.492C936.42-54.93 925.227-66.123 911.42-66.123zM513.278 481.329c-13.807 0-25 11.193-25 25L488.278 809.817c0 13.807 11.193 25 25 25 13.807 0 25-11.193 25-25l0-303.488C538.278 492.522 527.085 481.329 513.278 481.329zM884.421 782.494c13.743 0 24.884-11.141 24.884-24.884l0-199.076c0-13.741-11.141-24.884-24.884-24.884L685.35 533.65c-13.743 0-24.884 11.143-24.884 24.884L660.466 757.61c0 13.743 11.141 24.884 24.884 24.884L884.421 782.494M336.976 782.494c13.743 0 24.884-11.141 24.884-24.884l0-199.076c0-13.741-11.141-24.884-24.884-24.884L137.905 533.65c-13.743 0-24.884 11.143-24.884 24.884L113.021 757.61c0 13.743 11.141 24.884 24.884 24.884L336.976 782.494M336.976 235.046c13.743 0 24.884-11.141 24.884-24.884l0-199.074c0-13.748-11.141-24.884-24.884-24.884L137.905-13.796c-13.743 0-24.884 11.136-24.884 24.884L113.021 210.163c0 13.743 11.141 24.884 24.884 24.884L336.976 235.047M884.421 832.494 685.35 832.494c-41.291 0-74.884-33.593-74.884-74.884l0-199.076c0-41.291 33.593-74.884 74.884-74.884l199.071 0c41.291 0 74.884 33.593 74.884 74.884L959.305 757.61C959.305 798.901 925.712 832.494 884.421 832.494L884.421 832.494zM336.976 832.494 137.905 832.494c-41.291 0-74.884-33.593-74.884-74.884l0-199.076c0-41.291 33.593-74.884 74.884-74.884l199.071 0c41.291 0 74.884 33.593 74.884 74.884L411.86 757.61C411.859 798.901 378.267 832.494 336.976 832.494L336.976 832.494zM336.976 285.046 137.905 285.046c-41.291 0-74.884-33.593-74.884-74.884l0-199.074c0-41.291 33.593-74.884 74.884-74.884l199.071 0c41.291 0 74.884 33.593 74.884 74.884L411.86 210.163C411.859 251.454 378.267 285.046 336.976 285.046L336.976 285.046z"  horiz-adv-x="1024" />

    
    <glyph glyph-name="555" unicode="&#58915;" d="M219.069903-42.497651c-2.304486 0-4.630461 0.409322-6.871501 1.257643-7.563256 2.859118-12.567223 10.101055-12.567223 18.186198L199.631178 141.586948l-48.354288 0c-47.533596 0-86.204337 38.670741-86.204337 86.204337L65.072553 713.029782c0 47.533596 38.671765 86.204337 86.204337 86.204337l724.372875 0c47.532573 0 86.203314-38.671765 86.203314-86.204337l0-485.237473c0-47.533596-38.670741-86.204337-86.203314-86.204337L390.2414 141.587971 233.654063-35.916768C229.890342-40.183955 224.543567-42.497651 219.069903-42.497651zM151.27689 760.348484c-26.092261 0-47.318702-21.227464-47.318702-47.318702l0-485.237473c0-26.091238 21.227464-47.318702 47.318702-47.318702l67.797106 0c10.737552 0 19.442818-8.705266 19.442818-19.442818l0-132.654252 128.368646 145.516188c3.690042 4.184299 9.001001 6.580882 14.580067 6.580882l494.184239 0c26.091238 0 47.317679 21.227464 47.317679 47.318702L922.967444 713.029782c0 26.092261-21.22644 47.318702-47.317679 47.318702L151.27689 760.348484zM511.999488 387.272533c-32.050973 0-58.125839 26.074865-58.125839 58.125839s26.074865 58.125839 58.125839 58.125839c32.04995 0 58.125839-26.074865 58.125839-58.125839S544.049438 387.272533 511.999488 387.272533zM511.999488 464.638575c-10.608615 0-19.240203-8.631588-19.240203-19.240203 0-10.608615 8.631588-19.240203 19.240203-19.240203s19.240203 8.631588 19.240203 19.240203C531.239691 456.008011 522.608104 464.638575 511.999488 464.638575zM317.571311 387.272533c-32.050973 0-58.125839 26.074865-58.125839 58.125839s26.074865 58.125839 58.125839 58.125839 58.125839-26.074865 58.125839-58.125839S349.622284 387.272533 317.571311 387.272533zM317.571311 464.638575c-10.608615 0-19.240203-8.631588-19.240203-19.240203 0-10.608615 8.631588-19.240203 19.240203-19.240203s19.240203 8.631588 19.240203 19.240203C336.811514 456.008011 328.179926 464.638575 317.571311 464.638575zM706.427666 387.272533c-32.04995 0-58.125839 26.074865-58.125839 58.125839s26.074865 58.125839 58.125839 58.125839 58.125839-26.074865 58.125839-58.125839S738.477616 387.272533 706.427666 387.272533zM706.427666 464.638575c-10.608615 0-19.240203-8.631588-19.240203-19.240203 0-10.608615 8.631588-19.240203 19.240203-19.240203s19.240203 8.631588 19.240203 19.240203C725.667869 456.008011 717.036281 464.638575 706.427666 464.638575z"  horiz-adv-x="1024" />

    
    <glyph glyph-name="kaoshi" unicode="&#59135;" d="M812.150406-92.672614 35.300917-92.672614 35.300917 860.690243l776.831834 0 0-212.264475L847.442487 648.425768c0 113.732658 0 223.475316 0 223.475316 0 13.31177-12.640885 24.098894-28.247788 24.098894L28.256625 895.999978C12.649722 896.017633 0.008836 885.212854 0.008836 871.901084l0-975.784539c0-13.31177 12.640885-24.116549 28.247788-24.116549l790.938074 0c15.589248 0 28.247788 10.804779 28.247788 24.116549 0 0 0 170.457748 0 284.808326l-35.292081 0L812.150406-92.672614zM113.918043 645.300857l313.303282 0 0-35.309735-313.303282 0 0 35.309735ZM113.918043 447.566338l484.167092 0 0-35.309735-484.167092 0 0 35.309735ZM105.938043 242.769873l441.371693 0 0-35.309735-441.371693 0 0 35.309735ZM575.39863 261.1839l-7.238496-97.013498 97.013498 21.097567 297.343282 338.814566-85.149427 81.177082L575.39863 261.1839zM918.556294 527.489925l-272.255715-310.196026-39.405665-8.562611 2.807124 38.028585L884.358815 559.674748 918.556294 527.489925zM1008.560809 643.341167l-22.439337 18.978983c-8.403717 7.097257-18.731815 10.575266-29.006948 10.575266-12.481991 0-24.893363-5.119912-33.685488-15.147876l-26.711815-30.419337 86.808985-79.288011 29.677833 33.809072C1029.234659 600.086741 1027.151385 627.628334 1008.560809 643.341167zM986.686428 605.118378l-10.133894-11.546283-34.903673 31.390355 8.333098 9.498319c2.365752 2.71885 5.508319 3.142566 7.132567 3.142566s4.02531-0.388407 6.196859-2.224513l22.439337-18.978983c2.206858-1.853761 2.789469-4.02531 2.895398-5.508319C988.752048 609.390856 988.50488 607.219307 986.686428 605.118378z"  horiz-adv-x="1024" />

    
    <glyph glyph-name="fengbiqisangeyue" unicode="&#59133;" d="M925.596318 328.853006c-19.87056 0-36.013215 16.142655-36.013215 36.014238 0 19.905352 16.142655 36.013215 36.013215 36.013215s36.013215-16.107863 36.013215-36.013215C961.609533 344.996684 945.466877 328.853006 925.596318 328.853006zM897.707131 543.318542c-17.2335-9.917884-39.285748-4.009314-49.238424 13.224186-9.91686 17.232476-4.009314 39.248909 13.189394 49.166793 17.2335 9.952676 39.284725 4.079922 49.202609-13.153578C920.813385 575.323467 914.903791 553.307034 897.707131 543.318542zM932.172083 221.937974c-65.13344-168.393221-228.180909-288.110837-419.6108-288.110837-248.614288 0-450.172863 201.593368-450.172863 450.172863 0 191.428867 119.682823 354.511129 288.110837 419.645592l0-38.405705c-148.169621-63.095014-252.096599-210.033597-252.096599-381.239887 0-228.708935 185.414897-414.159648 414.159648-414.159648 171.207313 0 318.110081 103.96177 381.205095 252.096599L932.172083 221.936951zM717.074144 701.934073c-17.2335 9.953699-23.141046 31.969109-13.153578 49.202609 9.91686 17.197684 31.933293 23.106254 49.166793 13.18837 17.2335-9.952676 23.14207-32.003901 13.189394-49.202609C756.324076 697.889967 734.307643 692.016189 717.074144 701.934073zM656.617214 329.979666 476.548068 329.979666c-9.953699 0-18.007119 8.088212-18.007119 18.007119L458.540949 600.083383c0 9.988492 8.05342 18.007119 18.007119 18.007119s18.007119-8.018627 18.007119-18.007119l0-234.089479 162.062026 0c9.953699 0 18.007119-8.018627 18.007119-18.007119C674.624333 338.067878 666.570913 329.979666 656.617214 329.979666zM494.555188 762.145409c-19.87056 0-36.013215 16.142655-36.013215 36.014238 0 19.906375 16.142655 36.013215 36.013215 36.013215 19.871583 0 36.014238-16.107863 36.014238-36.013215C530.569426 778.288065 514.426771 762.145409 494.555188 762.145409z"  horiz-adv-x="1024" />

    
    <glyph glyph-name="9dianchangyeji" unicode="&#59250;" d="M513.139451 430.677089c114.598015 0 207.497844 92.901877 207.497844 207.499891 0 114.601084-92.89983 207.501938-207.497844 207.501938-114.602108 0-207.502961-92.900853-207.502961-207.501938C305.63649 523.578965 398.537344 430.677089 513.139451 430.677089zM513.139451 806.169065c92.77908 0 167.989015-75.211982 167.989015-167.992085 0-92.77601-75.209936-167.990039-167.989015-167.990039-92.780103 0-167.993109 75.213006-167.993109 167.990039C345.146343 730.958106 420.359348 806.169065 513.139451 806.169065zM616.192525 419.749202l0-0.168846-0.101307 0.168846-11.79872-20.648272-23.724331-41.506323L444.171684 357.594607l-23.715121 41.506323-10.376325 20.091594 0 0.556679c-0.083911-0.022513-0.166799-0.049119-0.249687-0.072655l-0.037862 0.072655-0.125867-0.119727c-161.502277-45.598524-279.872199-194.008622-279.872199-370.108363l37.872562 0c13.31219 142.66628 104.551194 262.670421 230.737128 317.084729l38.890752-68.052932L385.767506 129.294994l-17.328667-57.752332-0.629333-2.102894 1.982144-2.431376 42.087561-51.593052 8.711406-10.67513 73.509201-90.119507c3.507894-6.489808 10.376325-10.898211 18.270109-10.898211 7.386224 0 13.865799 3.865028 17.543561 9.674337l74.241888 91.344404 8.711406 10.679223 42.097794 51.588959 1.972934 2.423189-0.639566 2.119267-17.323551 57.743122-54.768371 172.534542 44.410466 64.458057c125.800147-54.562686 216.70453-174.381609 229.990115-316.76648l37.872562 0C896.47814 225.772302 777.906627 374.287801 616.192525 419.749202zM595.999624 129.131265l18.003026-58.508555-17.193591-21.072945-64.920592-79.561034-19.512403-24.963555-19.523659 24.963555-64.911382 79.561034-17.197684 21.079084 17.994839 58.502415 48.951899 159.091368 8.154727 26.514887 53.038984 0 8.160867-26.514887L595.999624 129.131265z"  horiz-adv-x="1024" />

    
    <glyph glyph-name="target" unicode="&#58993;" d="M966.050 410.998h-124.571l-1.66 13.364c-18.742 149.94-136.55 267.738-286.527 286.516l-13.314 1.66 0 124.535c0 3.533-2.848 6.39-6.363 6.39h-43.267c-3.534 0-6.418-2.856-6.418-6.39v-124.534l-13.334-1.66c-149.92-18.758-267.748-136.556-286.506-286.517l-1.683-13.364h-124.551c-3.476 0-6.38-2.854-6.38-6.39v-43.24c0-3.532 2.904-6.417 6.38-6.417h124.55l1.683-13.354c18.719-149.9 136.547-267.692 286.506-286.469l13.334-1.68v-124.552c0-3.555 2.884-6.4 6.418-6.4h43.267c3.515 0 6.363 2.845 6.363 6.4l-0 124.552 13.314 1.68c149.978 18.779 267.805 136.569 286.527 286.469l1.66 13.354h124.571c3.496 0 6.4 2.884 6.4 6.417l-0 43.24c0.001 3.536-2.903 6.39-6.399 6.39M483.929 109.839l-17.767 2.981c-114.848 19.409-204.993 109.575-224.309 224.383l-3.018 17.748h245.093v-245.113zM483.929 410.998h-245.093l3.018 17.767c19.316 114.827 109.501 205.003 224.348 224.366l17.727 3 0-245.133zM782.069 337.203c-19.332-114.809-109.46-204.974-224.327-224.383l-17.764-2.981v245.113h245.109l-3.019-17.748zM539.978 410.998v245.133l17.728-3c114.866-19.363 205.031-109.539 224.364-224.366l3.018-17.767h-245.109z"  horiz-adv-x="1024" />

    
    <glyph glyph-name="leimupinleifenleileibie" unicode="&#59385;" d="M320 384 192 384c-70.4 0-128-57.6-128-128l0-128c0-70.4 57.6-128 128-128l128 0c70.4 0 128 57.6 128 128l0 128C448 326.4 390.4 384 320 384zM384 128c0-35.2-28.8-64-64-64L192 64c-35.2 0-64 28.8-64 64l0 128c0 35.2 28.8 64 64 64l128 0c35.2 0 64-28.8 64-64L384 128zM768 832l-128 0C569.6 832 512 774.4 512 704l0-128c0-70.4 57.6-128 128-128l128 0c70.4 0 128 57.6 128 128L896 704C896 774.4 838.4 832 768 832zM832 576c0-35.2-28.8-64-64-64l-128 0C604.8 512 576 540.8 576 576L576 704c0 35.2 28.8 64 64 64l128 0c35.2 0 64-28.8 64-64L832 576zM768 384l-128 0c-70.4 0-128-57.6-128-128l0-128c0-70.4 57.6-128 128-128l128 0c70.4 0 128 57.6 128 128l0 128C896 326.4 838.4 384 768 384zM832 128c0-35.2-28.8-64-64-64l-128 0c-35.2 0-64 28.8-64 64l0 128c0 35.2 28.8 64 64 64l128 0c35.2 0 64-28.8 64-64L832 128zM320 832 192 832C121.6 832 64 774.4 64 704l0-128c0-70.4 57.6-128 128-128l128 0c70.4 0 128 57.6 128 128L448 704C448 774.4 390.4 832 320 832zM384 576c0-35.2-28.8-64-64-64L192 512C156.8 512 128 540.8 128 576L128 704c0 35.2 28.8 64 64 64l128 0c35.2 0 64-28.8 64-64L384 576z"  horiz-adv-x="1024" />

    
    <glyph glyph-name="nvbaobao" unicode="&#58888;" d="M375.60147 370.623341c18.273179 6.151094 38.315654-4.397147 44.7676-23.561625 6.451946-19.164478-3.131317-39.686884-21.404496-45.837978s-38.315654 4.397147-44.7676 23.561625C347.745029 343.949842 357.328291 364.472248 375.60147 370.623341zM631.848599 370.623341c18.273179 6.151094 38.315654-4.397147 44.7676-23.561625 6.451946-19.164478-3.131317-39.686884-21.404496-45.837978-18.273179-6.151094-38.315654 4.397147-44.7676 23.561625C603.992157 343.949842 613.57542 364.472248 631.848599 370.623341zM815.407218 377.71997c-1.681292 0.001023-3.325745-0.140193-4.979408-0.245593 0.222057 4.65195 0.36532 9.326413 0.369414 14.033621 0.01842 17.430998-1.620917 34.914184-4.703115 52.080146 5.824659 0.740874 11.649318 1.5104 17.46579 2.310625 0 0-43.123147 256.355599-304.85008 256.355599-231.858672 0-299.825646-182.073802-312.282353-253.94469 0 0 6.028297-1.394766 16.548908-3.313465-3.107781-17.148565-4.759397-34.805714-4.77884-52.847625-0.005117-4.671393 0.127913-9.312086 0.336668-13.930267-0.99056 0.037862-1.962701 0.151449-2.963495 0.152473-42.241057 0.045025-76.523861-34.163077-76.56991-76.405157-0.046049-42.241057 34.163077-76.522838 76.404134-76.56991 9.471722-0.010233 18.504446 1.782599 26.879184 4.92108 36.392862-96.731088 144.296407-166.951383 271.856641-167.090553 127.845737-0.137123 236.113579 70.155826 272.478811 167.142741 8.844435-3.586688 18.491143-5.610788 28.621874-5.622044 42.24208-0.046049 76.523861 34.161031 76.56991 76.404134C891.856377 343.393163 857.648274 377.672898 815.407218 377.71997zM851.822592 291.747923c-6.109138-21.201881-21.905916-25.107841-36.294624-26.592658-23.982204-2.474354-52.465932 9.342786-52.465932 9.342786C718.830649 170.370505 626.224508 109.133815 503.665171 112.588497c-184.516434 5.203512-230.372831 161.2618-230.372831 161.2618-9.67536-6.565533-29.17139-9.413394-49.264007-9.413394-15.811104 0-37.297464 9.550517-40.966017 34.497699-3.593851 24.436552 17.10968 40.013319 33.779338 44.559868 15.812127 4.312212 40.96704 7.186679 40.96704 7.186679 0.820692 21.724791 2.862187 41.87369 5.963829 60.561307 1.552356 9.353019 3.37691 18.3356 5.441942 26.978445 21.047362-2.375094 45.920866-4.232394 72.275093-4.242627l45.793976 74.222445 40.72861-81.933057c0 0 162.033373-5.662977 335.255577 12.377912 2.723018-12.655228 4.431939-23.514553 5.51562-31.580253 4.493338-33.415041 2.116197-55.81112 2.116197-55.81112 29.535687-1.650593 48.940642-6.321986 60.919465-12.071943C847.524706 331.644585 858.274538 314.139909 851.822592 291.747923zM769.417791 618.164181c0 0 68.99642 81.214696 171.052794 66.840314 35.935444-53.184293 22.5199-138.471748-5.749958-176.802752-33.060977 20.12434-63.246463 28.748764-114.994034 30.185486C819.727617 538.387229 806.789956 585.822588 769.417791 618.164181zM204.673519 538.387229c-51.747571-1.437745-81.933057-10.06217-114.994034-30.185486-28.268834 38.331004-41.685401 123.618459-5.749958 176.802752 102.057397 14.374382 171.052794-66.840314 171.052794-66.840314C217.610156 585.822588 204.673519 538.387229 204.673519 538.387229z"  horiz-adv-x="1024" />

    
    <glyph glyph-name="shuju" unicode="&#59036;" d="M617.328 820.034c30.27-5.237 59.791-13.91 88.286-25.961 48.418-20.477 91.915-49.807 129.283-87.175s66.698-80.866 87.176-129.284c12.051-28.495 20.724-58.016 25.961-88.286l-330.706-0v330.706M547.328 896v-476.672h476.672c0 263.282-213.39 476.672-476.672 476.672v0zM512 384v441.401l-70.599-1.82c-246.727-18.091-441.401-223.574-441.401-474.909 0-263.281 213.39-476.672 476.673-476.672 251.392 0 456.761 194.674 474.965 441.401l1.763 70.599h-441.401zM476.673-57.401c-224.257 0-406.073 181.817-406.073 406.073 0 212.366 163.101 386.39 370.802 404.31v-439.58h439.523c-17.864-207.759-191.886-370.803-404.252-370.803z"  horiz-adv-x="1024" />

    
    <glyph glyph-name="huodong" unicode="&#59174;" d="M871.241362 665.447067l-31.370475 0c15.906272 26.974351 22.887266 52.702316 20.655436 76.565816-1.849114 19.96982-11.314697 48.53746-46.001707 71.303976-28.761044 18.920932-65.74333 23.556509-106.773815 13.307074-66.536392-16.70445-145.279804-74.135464-197.060121-143.544277C458.882734 752.483352 380.196627 809.920506 313.660234 826.623933c-41.064254 10.31595-78.075193 5.646604-106.830097-13.307074-34.659381-22.76754-44.12394-51.334155-45.974078-71.303976-2.231831-23.863501 4.687766-49.591465 20.655436-76.565816l-31.370475 0c-47.498804 0-86.159312-38.685068-86.159312-86.221734L63.981708 468.162842c0-37.604456 24.805966-70.835302 60.685127-81.996502-3.408633-9.435906-5.194302-19.193131-5.194302-29.076222l0-333.192591c0-47.504944 38.700417-86.209454 86.210477-86.209454l610.114598 0c47.504944 0 86.142939 38.699394 86.142939 86.209454L901.940548 357.090117c0 9.945513-1.719154 19.735483-5.127787 29.109991 35.830043 11.223622 60.57154 44.454468 60.57154 81.96785L957.384301 579.194634C957.383278 626.729254 918.745283 665.447067 871.241362 665.447067M815.796586-0.909463 541.364283-0.909463 541.364283 381.925758l274.432303 0c13.678534 0 24.772196-11.161201 24.772196-24.835641l0-333.192591C840.568782 10.218992 829.47512-0.909463 815.796586-0.909463M575.1559 665.447067c43.645033 50.344618 100.933807 89.907683 147.455353 101.57849 24.160259 6.054903 43.930535 4.394077 58.247612-5.04183 15.208377-9.990538 17.916045-18.902512 18.520819-25.632797 2.420119-24.672936-24.039509-57.939597-36.537148-70.90284L575.1559 665.44809 575.1559 665.447067zM895.978766 579.194634 895.978766 468.162842c0-13.678534-11.05887-24.798802-24.737404-24.798802L541.364283 443.364039l0 160.64884 329.877079 0C884.91478 604.012879 895.978766 592.869075 895.978766 579.194634M479.987401 381.925758l0-382.834198L205.681988-0.90844c-13.713326 0-24.805966 11.128455-24.805966 24.805966L180.876022 357.090117c0 13.674441 11.092639 24.835641 24.805966 24.835641L479.987401 381.925758 479.987401 381.925758zM222.003721 736.349907c0.604774 6.730285 3.345188 15.642259 18.49012 25.632797 14.22191 9.43693 33.985022 11.17962 58.282405 5.04183 46.260603-11.607362 103.485933-51.170426 147.228179-101.57849L258.477424 665.446044C247.282454 676.784276 219.547787 711.087547 222.003721 736.349907M125.339148 579.194634c0 13.674441 11.093662 24.818245 24.800849 24.818245l329.847403 0 0-160.64884L150.139997 443.364039c-13.707187 0-24.800849 11.120268-24.800849 24.798802L125.339148 579.194634 125.339148 579.194634zM125.339148 579.194634"  horiz-adv-x="1024" />

    
    <glyph glyph-name="woderenwu" unicode="&#58904;" d="M277.785518 896 808.854495 896C923.163795 896 1015.829787 803.320786 1015.829787 689.009471L1015.829787 78.990532C1015.829787-35.327183 923.116658-128 808.854495-128L220.592314-128C106.283016-128 13.617021-35.320783 13.617021 78.990532L13.617021 631.823884 13.617021 574.638298 68.085106 574.638298 68.085106 78.985319C68.085106-5.221049 136.381716-73.531915 220.629853-73.531915L808.816956-73.531915C893.119733-73.531915 961.361702-5.247624 961.361702 78.985319L961.361702 689.014679C961.361702 773.221051 893.065091 841.531915 808.816956 841.531915L334.978723 841.531915 334.978723 896 277.785518 896ZM266.164175 213.206272 391.136234 213.206272 391.136234 127.710551 266.164175 127.710551 266.164175 213.206272ZM516.108292 213.206272 766.052406 213.206272 766.052406 127.710551 516.108292 127.710551 516.108292 213.206272ZM516.108292 426.945568 766.052406 426.945568 766.052406 341.449848 516.108292 341.449848 516.108292 426.945568ZM516.108292 640.684866 766.052406 640.684866 766.052406 555.189147 516.108292 555.189147 516.108292 640.684866ZM339.626235 528.270477C313.077319 687.616983 203.76831 828.454635 41.140534 887.646304 36.885695 889.194939 32.622891 890.677302 28.353253 892.09392L9.715245 840.886256C13.988636 839.486594 18.254512 838.012409 22.511352 836.463046 164.410311 784.816049 260.30409 662.722221 285.072313 524.052386L190.633794 516.750432 335.113278 288.005076 432.998791 535.490012 339.626235 528.270477 339.626235 528.270477Z"  horiz-adv-x="1024" />

    
    <glyph glyph-name="star" unicode="&#59187;" d="M1024 493.851388c0 15.180828-11.484233 24.615229-34.469943 28.311824L680.617553 567.078461 542.157967 847.084237c-7.789793 16.821125-17.849274 25.227377-30.154733 25.227377-12.303304 0-22.356318-8.406252-30.152578-25.227377L343.384602 567.078461 34.45701 522.163212C11.488544 518.466617 0 509.032216 0 493.851388c0-8.619641 5.129969-18.465733 15.387751-29.542586l224.002896-217.846934L186.467905-61.226341c-0.821226-5.746427-1.228606-9.86118-1.228606-12.311925 0-8.61533 2.151138-15.894282 6.457726-21.847632 4.304432-5.961972 10.762158-8.92787 19.381799-8.92787 7.38888 0 15.590364 2.450746 24.615229 7.378102l276.302714 145.247096 276.322113-145.247096c8.630418-4.927357 16.834058-7.378102 24.606607-7.378102 8.23166 0 14.473841 2.965898 18.780428 8.92787 4.293655 5.944729 6.446948 13.232302 6.446948 21.847632 0 5.326115-0.206923 9.427935-0.618614 12.311925l-52.927054 307.688209 223.384282 217.846934C1018.673885 474.97612 1024 484.826522 1024 493.851388z"  horiz-adv-x="1025" />

    
    <glyph glyph-name="meiyouxiaoxi" unicode="&#59057;" d="M959.118294 828.948885 64.770166 828.948885c-35.743062 0-64.745606-29.003568-64.745606-64.745606l0-615.390765c0-35.626405 29.114085-64.74049 64.745606-64.74049l48.662303 0c2.936889-9.127891 8.368598-18.140149 16.405645-26.508747 1.956561-2.061962 4.560876-3.580548 7.27673-4.234441 81.146135-20.966521 101.241822-47.143717 106.025779-60.833507 5.320169-15.208377-3.475148-27.373441-4.018523-28.132734-5.215792-6.739495-4.02364-16.405645 2.605338-21.620413 6.734378-5.320169 16.405645-4.234441 21.836331 2.499937 7.382131 9.344832 17.596773 31.719422 9.233292 56.703443-11.517311 34.328853-53.012378 61.270459-123.295094 80.169901-5.869684 6.950296-7.604188 12.70844-7.604188 17.270339l0 0.110517c0 6.191003 3.906983 12.492522 10.968819 17.812691 0.215918 0.110517 0.437975 0.327458 0.653893 0.437975 2.061962 1.518586 4.234441 2.931772 6.734378 4.234441 0.543376 0.327458 1.197268 0.653893 1.740644 0.86981 2.931772 1.518586 6.40692 2.605338 9.776667 3.802606 5.431709 1.302669 15.09786 3.042289 30.632671 3.042289 27.157523 0 58.876945-5.326309 94.070492-15.751752 5.869684-2.610454 11.843746-5.215792 17.708314-8.363482 1.845021-0.981351 3.585665-1.956561 5.431709-3.043313 7.498788-4.239558 14.992459-8.801457 22.485107-14.016225 0.653893-0.432859 1.307785-0.759293 1.956561-1.192152 118.622678-83.318614 105.371886-125.362172 105.482403-125.362172l0 0c-4.018523-7.604188-1.086751-16.942881 6.40692-20.961404 2.282996-1.197268 4.782933-1.851161 7.27673-1.851161 5.542226 0 10.973936 3.042289 13.68979 8.258081 4.888334 9.233292 21.071921 55.728232-77.343529 136.441509l274.507004 0c-98.31005-80.607876-82.126462-126.992299-77.238129-136.225591 2.826372-5.321192 8.473999-8.579399 14.233166-8.579399 2.282996 0 4.672416 0.543376 6.950296 1.734504 7.604188 4.02364 10.646478 12.930497 6.628978 20.534685-0.110517 0.431835-14.121626 42.4713 105.154945 126.116349 8.363482 5.869684 16.511046 10.863419 24.769127 15.429411 1.518586 0.864694 3.037173 1.734504 4.450359 2.493797 6.191003 3.25923 12.276604 6.085602 18.467607 8.801457 35.199687 10.320043 66.807568 15.640212 93.859691 15.640212 15.529695 0 25.200962-1.734504 30.522154-3.037173 3.369747-1.197268 6.955412-2.394537 9.887184-3.913123 0.543376-0.326435 1.086751-0.543376 1.629103-0.759293 2.605338-1.413186 5.104251-2.931772 7.166213-4.456498l0.326435-0.215918c7.060813-5.431709 10.973936-11.622712 11.079336-17.924231 0-0.110517 0.110517-0.110517 0.110517-0.215918-0.110517-4.561899-1.846044-10.320043-7.604188-17.164938-70.282716-18.899442-111.778806-45.841048-123.295094-80.169901-8.363482-25.090445 1.846044-47.470151 9.233292-56.703443 5.321192-6.734378 15.09786-7.820106 21.837354-2.499937 6.734378 5.326309 7.820106 15.102976 2.493797 21.725814-0.105401 0.110517-9.233292 12.276604-4.018523 27.595498 4.561899 13.795191 24.552186 40.08188 106.131179 61.265342 2.826372 0.759293 5.326309 2.172479 7.28287 4.234441 8.147564 8.473999 13.579273 17.491373 16.511046 26.614148 34.977629 0.76441 63.332421 29.330002 63.332421 64.635089L1023.977487 764.203278C1023.864924 799.94634 994.861356 828.948885 959.118294 828.948885L959.118294 828.948885 959.118294 828.948885zM164.710342 531.301857l138.065496 0c5.869684-20.528546 15.751752-72.671113-7.604188-138.392954l-1.629103-4.567016c-11.295254-31.502481-25.416879-70.715575 5.869684-151.644769 19.11536-49.426713 7.382131-77.565587-0.653893-89.514733l-0.110517 0c-1.408069 0.543376-2.715855 1.086751-4.123924 1.629103-18.578124 6.955412-36.390815 11.405771-53.339836 13.68979-1.413186 0.215918-2.931772 0.431835-4.344958 0.543376-7.930623 0.86981-15.640212 1.413186-23.028483 1.413186-1.629103 0-3.25923-0.110517-4.998851-0.110517-6.191003-0.105401-12.165064-0.543376-17.924231-1.302669-1.518586-0.215918-3.042289-0.327458-4.560876-0.543376-1.197268-0.215918-2.282996-0.543376-3.475148-0.653893 5.431709 25.638937 9.017374 63.659879-7.820106 89.076758-18.145266 27.379581-22.379707 111.673405-0.327458 175.221744C184.263677 453.415976 172.856883 502.947066 164.710342 531.301857L164.710342 531.301857 164.710342 531.301857zM774.557858 236.587626c31.286564 81.040734 17.164938 120.252805 5.863545 151.755286l-1.629103 4.455475c-23.354917 65.832358-13.357216 117.974925-7.493671 138.392954l137.960095 0c-8.147564-28.244274-19.553335-77.776388-9.992585-105.260345 21.942755-63.659879 17.812691-147.953703-0.327458-175.221744-16.947997-25.416879-13.251815-63.437821-7.931646-89.076758-1.191128 0.215918-2.27788 0.543376-3.585665 0.653893-0.975211 0.105401-2.061962 0.215918-3.14769 0.327458-6.40692 0.864694-13.146415 1.302669-20.207227 1.518586-0.975211 0-1.846044 0.110517-2.715855 0.110517-25.960255 0.105401-55.290257-4.998851-86.139869-17.275455C767.169587 158.916639 755.331981 187.160913 774.557858 236.587626L774.557858 236.587626 774.557858 236.587626zM992.794277 148.812513c0-18.140149-14.443967-32.910551-32.367175-33.67496-2.067079 5.975085-5.326309 11.733229-9.998725 17.059538-0.648776 0.759293-1.408069 1.408069-2.061962 2.061962-0.215918 0.326435-0.543376 0.543376-0.759293 0.759293-2.282996 2.388397-4.888334 4.560876-7.714705 6.734378-0.86981 0.653893-1.846044 1.413186-2.715855 2.067079-2.172479 1.518586-4.561899 3.042289-7.060813 4.450359-1.086751 0.653893-1.956561 1.307785-3.042289 1.956561-0.321318 0.215918-0.759293 0.326435-1.086751 0.437975 0 0-0.105401 0-0.105401 0.105401-5.869684 19.880793-14.665001 62.678528-1.086751 82.997296 25.854854 38.885636 27.589358 133.615137 3.801583 202.595184-6.412037 18.571984 3.585665 64.307631 13.035898 95.051843l6.080485 0c8.585539 0 15.534811 6.950296 15.534811 15.529695 0 8.584516-6.950296 15.534811-15.534811 15.534811l-17.380856 0L760.003374 562.478927l-13.362332 0c-8.584516 0-15.534811-6.950296-15.534811-15.534811 0-5.975085 3.475148-11.079336 8.473999-13.684674-6.955412-27.595498-14.449084-82.231863 9.882068-150.669558l1.629103-4.672416c10.104125-28.027333 21.509896-59.746756-5.53711-129.924071-22.053272-56.920384-10.535961-93.965092 1.191128-113.845884-10.320043-5.431709-20.745487-11.728112-31.281447-18.899442l0 0L358.614587 115.24807c-0.981351 0.653893-1.956561 1.197268-3.043313 1.846044-8.473999 5.758144-17.053398 10.863419-25.423019 15.424294-0.975211 0.543376-2.061962 1.197268-3.14769 1.851161 11.733229 19.874653 23.2444 56.920384 1.197268 113.734344-27.157523 70.066799-15.751752 101.785198-5.652743 129.813554l1.740644 4.777817c24.331151 68.436672 16.83748 122.968659 9.887184 150.669558 4.993734 2.610454 8.579399 7.604188 8.579399 13.68979 0 8.579399-6.950296 15.534811-15.534811 15.534811l-13.251815 0L143.743822 562.589444l-17.380856 0c-8.585539 0-15.534811-6.955412-15.534811-15.534811 0-8.579399 6.950296-15.535835 15.534811-15.535835l6.080485 0c9.455349-30.848589 19.447934-76.473719 13.035898-95.051843-23.460318-67.677379-21.615297-164.247808 3.801583-202.595184 13.473873-20.202111 4.782933-63.111386-1.085728-82.991156-0.321318-0.215918-0.864694-0.327458-1.192152-0.543376-1.197268-0.653893-2.282996-1.413186-3.369747-2.067079-2.27788-1.302669-4.560876-2.715855-6.622838-4.123924-0.980327-0.76441-2.067079-1.413186-3.042289-2.172479-2.715855-2.067079-5.215792-4.239558-7.388271-6.517437l-0.975211-0.981351c-0.653893-0.648776-1.413186-1.302669-2.067079-1.956561-1.846044-2.172479-3.364631-4.561899-4.888334-6.839779 0-0.110517-0.105401-0.110517-0.105401-0.222057-2.067079-3.25923-3.801583-6.622838-4.998851-10.097986L64.875566 115.358587c-18.571984 0-33.67496 15.09786-33.67496 33.67496L31.200606 764.425336c0 18.573008 15.102976 33.67496 33.67496 33.67496l894.353245 0c18.578124 0 33.67496-15.102976 33.67496-33.67496L992.794277 148.812513 992.794277 148.812513 992.794277 148.812513zM479.08331 603.541135c0 8.579399-6.950296 15.534811-15.534811 15.534811-52.575426 0-97.112782 32.478715-118.622678 48.124044-4.888334 3.580548-8.801457 6.40692-11.517311 7.925507-7.382131 4.344958-16.83748 1.956561-21.287839-5.431709-4.344958-7.382131-1.956561-16.83748 5.431709-21.287839 2.061962-1.302669 5.104251-3.475148 9.017374-6.412037 24.115234-17.596773 74.189699-54.094012 136.874367-54.094012C472.134037 588.006324 479.08331 594.961736 479.08331 603.541135L479.08331 603.541135 479.08331 603.541135zM701.44877 675.12652c-2.605338-1.629103-6.517437-4.344958-11.511171-7.925507-21.404496-15.646352-65.942875-48.124044-118.628818-48.124044-8.579399 0-15.529695-6.955412-15.529695-15.534811s6.950296-15.534811 15.529695-15.534811c62.683644 0 112.759133 36.502355 136.874367 54.099129 3.913123 2.826372 6.955412 5.104251 9.127891 6.40692 7.388271 4.344958 9.776667 13.905708 5.431709 21.293979C718.28625 677.193599 708.7255 679.581995 701.44877 675.12652L701.44877 675.12652 701.44877 675.12652zM622.692055 253.535623 518.30152 300.463422c-4.239558 1.956561-9.233292 1.846044-13.362332-0.327458l-92.335988-46.816259c-7.714705-3.913123-10.758018-13.256932-6.844895-20.86112 3.801583-7.604188 13.146415-10.641361 20.856004-6.839779l85.712127 43.451628 97.656157-43.779086c2.061962-0.981351 4.234441-1.413186 6.40692-1.413186 5.869684 0 11.627828 3.369747 14.121626 9.122775C633.992425 240.827183 630.512161 250.060475 622.692055 253.535623L622.692055 253.535623 622.692055 253.535623zM622.692055 253.535623"  horiz-adv-x="1024" />

    
    <glyph glyph-name="xiaoshouechaxun" unicode="&#58899;" d="M391.520549 518.720366 186.789303 518.720366c-9.926949 0-18.132114 8.206629-18.132114 18.132114 0 9.925486 8.205166 18.130651 18.132114 18.130651L391.650743 554.983131c9.926949 0 18.132114-8.205166 18.132114-18.130651C409.6512 526.795337 401.440183 518.720366 391.520549 518.720366L391.520549 518.720366 391.520549 518.720366zM391.520549 437.600549 186.789303 437.600549c-9.926949 0-18.132114 8.205166-18.132114 18.262309 0 9.926949 8.205166 18.132114 18.132114 18.132114L391.650743 473.994971c9.926949 0 18.132114-8.074971 18.132114-18.132114C409.6512 445.67552 401.440183 437.600549 391.520549 437.600549L391.520549 437.600549 391.520549 437.600549zM383.445577 752.303543 172.097829 752.303543c-39.96672 0-72.521143-32.428617-72.521143-72.257829l0-391.857006 178.920594 0c73.714834 0 133.66272-60.085394 133.66272-133.800229l0-172.302629 247.079497 0c39.96672 0 72.389486 32.422766 72.389486 72.389486L731.628983 252.851931c0 17.068617 13.765486 30.834103 30.702446 30.834103 17.074469 0 30.834103-13.765486 30.834103-30.834103l0-198.376594c0-73.978149-60.079543-133.926034-133.926034-133.926034l-286.120229 0c-8.205166 0-15.879314 3.303131-21.701486 8.993646L47.033783 232.600137c-5.822171 5.691977-8.999497 13.635291-8.999497 21.840457L38.034286 680.039863c0 73.852343 60.079543 133.931886 134.057691 133.931886l211.347749 0c17.074469 0 30.96576-13.765486 30.96576-30.834103 0-16.942811-13.891291-30.834103-30.96576-30.834103l0 0L383.445577 752.303543zM351.286126 16.498103l0 137.896229c0 40.228571-32.68608 72.782994-72.651337 72.782994L139.811109 227.177326 351.286126 16.498103 351.286126 16.498103zM977.644983 389.297006l-115.925577 115.92704c27.788434 35.730286 44.463543 80.730697 44.463543 129.559406C906.182949 751.509211 811.559497 846.262857 694.707931 846.262857c-116.72576 0-211.347749-94.753646-211.347749-211.479406 0-116.719909 94.621989-211.34336 211.347749-211.34336 48.828709 0 93.82912 16.543451 129.692526 44.463543l115.925577-115.925577c5.159497-5.165349 11.913509-7.811657 18.663131-7.811657 6.74816 0 13.49632 2.646309 18.655817 7.811657C988.102949 362.297051 988.102949 378.97216 977.644983 389.297006L977.644983 389.297006 977.644983 389.297006zM536.296594 634.783451c0 87.48032 71.068526 158.542994 158.411337 158.542994 87.474469 0 158.537143-71.068526 158.537143-158.542994s-71.062674-158.542994-158.537143-158.542994C607.360731 476.240457 536.296594 547.44064 536.296594 634.783451L536.296594 634.783451 536.296594 634.783451zM536.296594 634.783451"  horiz-adv-x="1024" />

    
    <glyph glyph-name="yinger" unicode="&#58903;" d="M508.437935 74.053434q-21.372392-9.79568-40.073235-19.591359-16.029294-8.905163-32.058588-19.591359t-25.824973-23.153424q-8.905163-11.576712-8.459905-20.927134t5.788356-17.810326 14.693519-16.029294 17.365068-15.584036q8.905163-8.014647 4.007323-22.708166t-17.365068-27.160748-30.277555-17.810326-34.730137 6.233614q-17.810326 10.686196-36.511169 30.722813t-32.503846 44.080558-18.700843 48.53314 5.788356 44.971074 24.043941 42.744784 25.824973 40.073235q14.248261 21.372392 28.496522 41.854267 15.138777-4.452582 31.168071-9.79568 13.357745-4.452582 28.94178-12.02197t28.94178-16.474552q14.248261-9.79568 25.379715-20.481875t19.146101-19.591359q9.79568-9.79568 16.91981-20.481875zM695.446363 172.900746q16.029294-20.481875 32.058588-41.854267 13.357745-17.810326 27.606006-40.073235t24.934457-42.744784 5.788356-44.971074-18.700843-48.53314-32.503846-44.080558-35.620653-30.722813q-17.810326-11.576712-35.620653-6.233614t-30.277555 17.810326-17.365068 27.160748 4.007323 22.708166 17.810326 15.584036 14.693519 16.029294 5.788356 17.810326-8.905163 20.927134q-9.79568 12.467229-26.270232 23.153424t-32.503846 19.591359q-18.700843 9.79568-39.182718 19.591359 8.014647 10.686196 17.810326 20.481875 8.905163 8.905163 20.036617 19.146101t26.270232 20.036617q12.467229 8.905163 26.270232 16.029294t26.270232 12.467229q14.248261 6.233614 27.606006 10.686196zM861.082399 390.186729q19.591359-16.029294 21.81765-33.394362t-5.788356-30.277555-24.043941-19.146101-33.83962-0.890516q-17.810326 6.233614-37.401686 14.693519t-37.401686 17.365068q-20.481875 9.79568-40.073235 20.481875l-8.014647-129.124867q-18.700843-2.671549-41.854267-5.343098-20.481875-1.781033-49.423656-3.562065t-66.343466-1.781033-69.460273 1.781033-56.102528 3.562065q-28.496522 2.671549-51.649947 5.343098l0 137.139514q-21.372392-2.671549-44.525816-8.014647-20.481875-4.452582-46.306849-12.02197t-51.649947-19.146101q-26.71549-11.576712-45.861591-2.226291t-27.160748 28.051264-3.116807 39.627976 26.270232 31.613329q15.138777 7.124131 33.394362 17.365068t36.956427 21.372392 35.620653 22.262908 30.277555 19.146101q37.401686-50.75943 94.839988-81.482244t126.00806-30.722813q65.898208 0 121.11022 27.606006t93.504214 75.693887q6.233614-5.343098 19.591359-17.365068t30.277555-26.71549 35.175395-31.168071 35.175395-30.722813zM530.700843 448.960806q-46.306849 0-87.2706 17.365068t-71.241306 47.642623-47.642623 71.241306-17.365068 87.2706 17.365068 87.2706 47.642623 71.241306 71.241306 47.642623 87.2706 17.365068 87.2706-17.365068 71.241306-47.642623 47.642623-71.241306 17.365068-87.2706-17.365068-87.2706-47.642623-71.241306-71.241306-47.642623-87.2706-17.365068z"  horiz-adv-x="1024" />

    
    <glyph glyph-name="36x36shengri" unicode="&#58909;" d="M918.641778 74.353778 113.095111 74.353778c-34.759111 0-60.586667-26.624-60.586667-61.838222 0-35.157333 25.827556-61.781333 60.586667-61.781333l805.546667 0c34.759111 0 60.586667 26.624 60.586667 61.781333C979.228444 47.729778 953.400889 74.353778 918.641778 74.353778zM916.053333 300.856889 916.053333 300.856889c0 0 0 82.346667-84.280889 82.346667L199.936 383.203556c-84.224 0-84.224-82.346667-84.224-82.346667l0-185.344 800.341333 0L916.053333 300.856889zM199.936 424.362667l168.476444 0L368.412444 589.084444 199.936 589.084444 199.936 424.362667zM600.092444 589.084444l-168.476444 0 0-164.721778 168.476444 0L600.092444 589.084444zM831.772444 589.084444 663.324444 589.084444l0-164.721778 168.419556 0L831.744 589.084444zM252.615111 630.328889c0 0-10.524444 5.432889-10.524444 20.565333 0 20.224 16.042667 54.869333 42.097778 54.869333 26.453333 0 42.097778-38.172444 42.097778-54.869333 0-15.104-10.552889-20.565333-10.552889-20.565333s52.650667 0 52.650667 61.781333c0 59.448889-68.010667 123.562667-84.280889 123.562667-17.436444 0-84.280889-65.223111-84.280889-123.562667C199.936 630.328889 252.615111 630.328889 252.615111 630.328889zM484.295111 630.328889c0 0-10.524444 5.432889-10.524444 20.565333 0 20.224 16.042667 54.869333 42.097778 54.869333 26.538667 0 42.097778-38.172444 42.097778-54.869333 0-15.104-10.552889-20.565333-10.552889-20.565333s52.650667 0 52.650667 61.781333c0 59.448889-67.953778 123.562667-84.224 123.562667-17.436444 0-84.280889-65.223111-84.280889-123.562667C431.616 630.328889 484.295111 630.328889 484.295111 630.328889zM715.918222 630.328889 715.918222 630.328889c0 0-10.552889 5.432889-10.552889 20.565333 0 20.224 16.042667 54.869333 42.183111 54.869333 26.453333 0 42.154667-38.172444 42.154667-54.869333 0-15.104-10.552889-20.565333-10.552889-20.565333s52.593778 0 52.593778 61.781333c0 59.448889-68.010667 123.562667-84.224 123.562667-17.436444 0-84.224-65.223111-84.224-123.562667C663.324444 630.328889 715.918222 630.328889 715.918222 630.328889z"  horiz-adv-x="1024" />

    
    <glyph glyph-name="qushi" unicode="&#58928;" d="M1142.031538-49.244218C1163.739195-49.244218 1181.336726-66.722678 1181.336726-88.622109 1181.336726-110.369916 1163.720428-128 1142.031538-128L39.305187-128C17.597532-128 0-110.52154 0-88.622109 0-66.874303 17.616298-49.244218 39.305187-49.244218L196.889454-49.244218 196.889454 187.119815C196.889454 208.814222 214.367915 226.401018 236.267345 226.401018 258.015154 226.401018 275.645236 208.826216 275.645236 187.119815L275.645236-49.244218 433.156799-49.244218 433.156799 344.593666C433.156799 366.308904 450.635259 383.912581 472.53469 383.912581 494.282497 383.912581 511.912581 366.291392 511.912581 344.593666L511.912581-49.244218 669.424144-49.244218 669.424144 265.953057C669.424144 287.604687 686.902604 305.156799 708.802035 305.156799 730.549842 305.156799 748.179926 287.640057 748.179926 265.953057L748.179926-49.244218 905.691505-49.244218C905.691494-49.232779 905.69149 462.634037 905.69149 462.634037 905.69149 484.400804 923.169949 502.046254 945.06938 502.046254 966.817187 502.046254 984.447271 484.537627 984.447271 462.634037L984.447271-49.209893C984.447271-49.221336 1142.031538-49.244218 1142.031538-49.244218ZM726.355018 416.153627C712.435548 402.039626 690.194312 400.473075 674.433859 412.496586L466.360261 571.971829 107.223743 235.236755C91.380734 220.338224 66.459792 221.103872 51.56126 236.946882 36.662728 252.789891 37.428378 277.710835 53.271387 292.609365L435.711724 652.250625C449.742716 665.445161 471.259063 666.554063 486.57214 654.871849L694.287723 494.47064 999.978876 805.759997 870.757016 791.084819C849.148111 788.630787 829.641241 804.158882 827.187211 825.76779 824.733176 847.376698 840.261273 866.883565 861.870182 869.337597L1092.891081 895.57366C1116.248793 898.226297 1136.712388 879.955126 1136.712388 856.447273L1136.712396 648.416824C1136.7124 626.669015 1119.082316 609.038932 1097.334509 609.038931 1075.586699 609.038931 1057.956618 626.669012 1057.956615 648.416821L1057.956611 752.389526 726.355018 416.153627Z"  horiz-adv-x="1182" />

    
    <glyph glyph-name="tuijian" unicode="&#59050;" d="M88.246345-11.559011c0-19.907399-15.798824-36.017308-35.240619-36.017308-19.517519 0-35.396161 16.109909-35.396161 36.017308L17.609565 491.739816c0 19.905352 15.878642 36.014238 35.396161 36.014238 19.441794 0 35.240619-16.109909 35.240619-36.014238L88.246345-11.559011 88.246345-11.559011zM900.896776 527.911644 692.07989 527.911644c15.105023 35.859719 32.531927 128.882346 22.229281 213.3092C706.253704 808.527786 667.683247 860.422713 611.063715 879.941256c-41.903366 14.561647-86.361927 7.512091-110.372783-17.35118-28.424376-29.509081-41.7468-85.277222-55.92266-144.064117-9.214872-38.728046-18.820648-78.539774-30.748305-99.143021-34.465976-59.639309-106.730836-91.472318-120.751155-91.472318l-99.064226 0c-19.517519 0-35.319413-16.266475-35.319413-36.171828l0-503.298827c0-19.907399 15.800871-35.939537 35.319413-35.939537l95.578846 0c29.664623 0 139.64855-71.952752 266.906909-71.952752l238.249219 0c39.191604 0 106.73186 15.414061 132.138506 58.012252 25.560142 43.372833 79.389118 436.920024 79.31237 480.371652C1006.390435 479.346555 948.76397 527.911644 900.896776 527.911644zM907.083685 197.459466c-21.803585-144.474462-36.455283-207.337185-42.366923-223.908606-8.001231-9.127891-39.98569-21.712511-69.777203-21.712511L556.69034-48.16165c-71.467705 0-140.974755 29.175483-186.968276 48.480154-33.677007 14.134929-55.923684 23.472598-79.938634 23.472598l-59.606563 0L230.176868 456.619948l63.09092 0c44.454468 0 137.640824 49.5096 182.475961 127.09156 16.105816 27.821649 26.063609 66.557882 38.360679 118.234845l0.216941 0.896416c10.140964 42.061978 22.74912 94.354971 37.490869 110.053512 1.267876 0.921999 6.449899 3.264347 15.603373 3.264347 6.541997 0 13.543458-1.232061 20.24816-3.561106 30.752398-10.600429 51.051723-39.684838 55.860239-79.851653 8.603959-70.50375-6.357801-151.552671-17.144472-177.160909l-41.685401-98.965989 316.202639 0c9.369392-0.070608 34.20401-17.258059 34.20401-37.687344C934.885891 402.919908 923.864884 308.654988 907.083685 197.459466z"  horiz-adv-x="1024" />

    
    <glyph glyph-name="xiaoshoumingxi" unicode="&#58893;" d="M647.30013 637.74116 542.002724 448.129063 493.320266 448.129063l-95.317822 189.867983L327.761526 637.165414l93.910445-189.420182L328.401242 445.698139 328.401242 382.877937l126.855866 0 0-65.251126L328.401242 317.62681l0-60.773108 126.855866 0 0-128.51913 126.791895 0L582.049003 256.917674l126.791895 0L708.840898 315.707659 582.112975 315.707659 582.112975 382.877937l126.791895 0L708.90487 445.698139 609.684774 447.745233l105.937123 191.851106L647.30013 637.74116zM1019.295522 448.065091l-66.082758 0c3.134613-21.110659 6.525113-42.157345 6.525113-64.163608 0-247.314563-200.423313-447.801848-447.801848-447.801848-121.866074 0-232.153272 49.13026-312.885548 128.071328L157.340937 64.170964c-0.639717 0-1.15149 0.127943-1.727236 0L112.624724 64.170964l-103.378255-144.320138c-11.578876-12.346537-9.339867-30.386554 5.053764-40.366138 14.329659-9.979584 35.376346-7.996462 50.28175 8.956037l95.765624 130.438281C247.285136-65.755543 381.817606-128 512-128c282.626938 0 511.77354 229.146603 511.77354 511.837512C1023.77354 405.651859 1021.918361 426.954433 1019.295522 448.065091zM910.991446 704.015833 910.991446 704.015833C913.230456 701.26505 912.142937 702.672427 910.991446 704.015833zM70.595322 320.057734C67.588652 341.104421 64.198152 362.023165 64.198152 383.901484c0 247.314563 200.487284 447.801848 447.737876 447.801848 121.674159 0 231.769442-48.938345 312.437746-127.75147l86.617672 0C908.688465 706.702644 909.903928 705.359239 910.991446 704.015833l105.425349 145.279714c11.514905 12.346537 9.275895 30.450526-5.117735 40.366138-14.265687 9.915612-35.376346 7.996462-46.827279-4.350075l-98.772293-131.269913C775.115571 835.285746 643.205941 895.611052 512 895.611052c-282.690909 0-511.77354-229.146603-511.77354-511.77354 0-21.622432 1.727236-42.797062 4.350075-63.779777L70.595322 320.057734z"  horiz-adv-x="1024" />

    
    <glyph glyph-name="icon" unicode="&#58886;" d="M64.277 626.336c0-113.924 200.099-206.277 446.934-206.277s446.934 92.353 446.934 206.277-200.098 206.277-446.934 206.277-446.934-92.353-446.934-206.277zM511.211 330.672c-192.526 0-350.672 55.008-419.431 130.642-20.628-27.503-27.503-48.131-27.503-75.635 0-110.015 199.401-206.277 446.934-206.277s446.935 89.386 446.935 206.276c0 27.503-13.752 48.131-27.503 75.635-68.76-75.635-226.906-130.641-419.432-130.641zM511.211 83.14c-192.526 0-350.672 55.007-419.431 130.642-20.628-20.628-27.503-48.131-27.503-75.635 0-110.015 199.401-206.277 446.934-206.277s446.935 89.386 446.935 206.276c0 27.503-13.752 48.131-27.503 75.635-68.76-75.635-226.906-130.641-419.432-130.641z"  horiz-adv-x="1024" />

    
    <glyph glyph-name="zhanbilei" unicode="&#59086;" d="M241.60609 156.278333l503.451241 503.468815 45.255624-45.254044L286.861714 111.024289zM265.1 133.7m-31.7 0a31.7 31.7 0 1 1 63.4 0 31.7 31.7 0 1 1-63.4 0ZM768.6 637.7m-31.7 0a31.7 31.7 0 1 1 63.4 0 31.7 31.7 0 1 1-63.4 0ZM433.1 738h-127c-35.3 0-64-28.7-64-64v-181c0-35.3 28.7-64 64-64h127c35.3 0 64 28.7 64 64V674c0 35.3-28.7 64-64 64z m0-246.1h-127V673h127v-181.1zM750.4 329h-127c-35.3 0-64-28.7-64-64v-181c0-35.3 28.7-64 64-64h127c35.3 0 64 28.7 64 64V265c0 35.3-28.7 64-64 64z m0-246.1h-127V264h127v-181.1z"  horiz-adv-x="1024" />

    
    <glyph glyph-name="weixin" unicode="&#58898;" d="M274.55 475.517c-46.994 0-86.57 39.575-86.57 86.57s39.576 86.57 86.57 86.57 86.57-39.575 86.57-86.57-37.1-86.57-86.57-86.57z m0 123.671c-19.787 0-37.1-17.314-37.1-37.101s17.313-37.101 37.1-37.101 37.102 17.314 37.102 37.101-14.84 37.101-37.101 37.101z m321.547-123.671c-46.996 0-86.57 39.575-86.57 86.57s39.574 86.57 86.57 86.57 86.57-39.575 86.57-86.57-39.575-86.57-86.57-86.57z m0 123.671c-19.788 0-37.102-17.314-37.102-37.101s17.314-37.101 37.102-37.101 37.101 17.314 37.101 37.101-17.314 37.101-37.101 37.101z m2.473-304.231c-27.208 0-49.469-22.261-49.469-49.47s22.261-49.468 49.469-49.468 49.469 22.261 49.469 49.469-22.261 49.469-49.469 49.469z m185.507 0c-27.207 0-49.468-22.261-49.468-49.47s22.26-49.468 49.468-49.468 49.469 22.261 49.469 49.469-22.261 49.469-49.469 49.469zM435.324 829.217c210.241 0 316.599-153.352 348.753-242.396 12.367-37.101 12.367-54.415 14.84-86.57v-19.787l2.474-27.208 24.735-12.367C910.222 393.894 959.69 322.164 959.69 247.96c0-64.309-32.155-126.145-91.517-168.193l-29.681-22.26 12.367-34.629 12.367-37.101-76.676 39.575-14.84 7.42-17.315-2.473c-19.787-4.947-39.575-4.947-59.362-4.947-116.251 0-217.662 61.835-252.29 155.826l-12.367 32.154h-37.102c-14.84 0-19.787 0-39.575 2.474l-14.84 2.473-14.84-7.42-136.04-69.256 27.208 86.57 12.368 34.628-29.682 22.26C116.251 344.426 69.256 430.996 69.256 520.04 66.783 690.705 232.502 829.217 435.324 829.217m0 49.469c-230.03 0-418.01-160.773-418.01-361.12 0-111.305 56.889-207.769 148.406-274.552L98.937 45.14l244.87 121.198c22.26-2.473 29.68-2.473 49.468-4.947 42.049-108.83 160.773-187.98 299.285-187.98 24.735 0 46.996 2.473 69.256 7.42l183.034-91.517-49.468 150.88c69.256 49.468 111.304 123.67 111.304 207.767 0 101.411-66.783 185.508-158.3 234.976-2.473 44.522-2.473 69.256-17.314 118.725-39.574 116.251-165.72 277.024-395.748 277.024zM395.749 151.498c-17.314 34.628-17.314 79.15-17.314 98.937v4.947c4.947 148.405 140.985 262.183 311.652 262.183 14.84 0 32.155 0 49.469-2.473 29.68-4.947 74.202-12.367 106.357-32.155l-24.734-42.048c-27.208 17.314-71.73 22.26-86.57 24.734-14.84 2.474-29.681 2.474-42.049 2.474-143.459 0-257.236-93.99-262.183-212.715v-4.947c0-17.314 0-54.416 12.367-79.15l-46.995-19.787z"  horiz-adv-x="1024" />

    
    <glyph glyph-name="lianxi" unicode="&#58895;" d="M650.29632-118.18496c37.632 0 72.32 8.832 102.72256 26.17344 32.57856 18.62656 57.856 47.23712 79.36 80.256 2.944 5.25312 3.26144 5.76 6.144 11.07456 32.45056 59.45856-4.02944 153.46688-92.928 223.54944-48.384 38.07744-102.016 59.83744-146.75456 59.83744-33.536 0-60.544-12.032-76.92288-34.56-3.46112-2.3552-9.344-5.23776-14.14656-5.23776-1.34144 0-4.224 0-8.448 4.864-0.32256 0.256-0.57344 0.63488-0.82944 0.896a874.83392 874.83392 0 0 0-68.80256 103.79776 878.08 878.08 0 0 0-49.85344 103.2448c-2.048 10.94656-0.512 16.512 0.768 18.04288 0.89088 1.09056 3.584 1.86368 3.64544 1.86368 24.448 0.57344 46.336 11.57632 63.68256 31.80544 32.82944 38.07744 46.72 105.15456 37.30944 179.328-14.46912 113.664-76.8 199.424-145.02912 199.424h-1.97632c-3.2-0.06144-6.4-0.384-9.41056-0.83456-41.92256 1.792-80.512-6.97344-113.92-26.04544C59.9552 770.78016 56.63744 492.51328 207.4112 225.8176c116.35712-205.89056 294.33856-344.00256 442.88-344.00256z m-51.38944 344.576c31.93344 0 73.78944-17.98144 111.872-47.93344 66.432-52.29056 95.744-121.088 80.70144-149.248-2.23744-4.10112-3.96288-6.85056-5.05344-9.02144-15.03744-25.92256-37.30944-49.408-61.37344-63.10912-21.89312-12.48256-46.976-18.88256-74.69056-18.88256-126.848 0-288.70656 129.73056-393.728 315.392-130.816 231.30624-137.088 486.15424-13.75744 556.68224 24.76544 14.08 53.94944 20.352 85.88288 18.43712 2.304-0.128 4.67456 0 6.912 0.37888 1.34144 0.32256 2.62144 0.512 3.968 0.58368 33.536 0 78.65344-64.19456 89.53344-150.14912 7.23968-56.77056-2.23744-109.89056-23.99744-135.30112-10.30144-11.904-19.00544-12.09344-21.76-12.16-2.49344 0-28.928-0.82944-46.72-22.784-13.62944-16.76288-17.536-39.424-11.84256-67.38944 0.38912-1.59744 0.83968-3.26656 1.47968-4.864a950.44608 950.44608 0 0 1 54.144-112.32256 948.34176 948.34176 0 0 1 75.38688-113.22368c1.21856-1.65888 2.56-3.072 4.096-4.28544 13.312-13.69088 29.824-20.736 47.872-20.736 28.672 0 50.944 18.49344 53.38112 20.736 2.10944 1.72544 3.90144 3.968 5.43744 6.33856 6.58944 10.496 21.12 12.85632 32.256 12.85632z m88.89344 190.21312c13.568 0 25.6 9.6 28.03712 23.36256 4.864 26.05056-0.90112 52.352-15.93856 74.17344a98.5088 98.5088 0 0 1-63.616 41.216c-15.54944 2.75456-30.336-7.48544-33.08544-22.97344-2.944-15.488 7.35744-30.336 22.84544-33.152a42.22976 42.22976 0 0 0 27.008-17.47456c6.33856-9.33888 8.832-20.48 6.784-31.488a28.32384 28.32384 0 0 1 22.84544-33.152c1.73056-0.37888 3.52256-0.512 5.12-0.512z m96.45056 2.048c13.44 0 25.40544 9.60512 28.032 23.36256 17.28 94.464-45.50656 185.344-139.84256 202.68544-15.54944 2.816-30.464-7.424-33.28-22.90688a28.53888 28.53888 0 0 1 22.91712-33.21856c63.488-11.648 105.6-72.77056 93.952-136.25856-2.75456-15.48288 7.54688-30.26944 22.90688-33.21344 1.792-0.32256 3.65056-0.44544 5.31456-0.44544z m110.40768-31.16544c13.312 0 25.3952 9.66656 27.83744 23.35744 14.45888 78.592-2.49856 158.02368-47.93856 223.81568-45.37856 65.664-113.59744 109.824-192.128 124.22656-15.42656 2.816-30.336-7.424-33.14688-22.91712-2.94912-15.48288 7.35744-30.33088 22.90688-33.14688 63.488-11.71456 118.71744-47.36 155.45856-100.54656 36.66944-53.18656 50.56-117.504 38.77888-181.12-2.74944-15.42656 7.42912-30.336 22.912-33.09056 1.79712-0.45056 3.456-0.57856 5.31968-0.57856z"  horiz-adv-x="1024" />

    
    <glyph glyph-name="dingdanzongshu-" unicode="&#58927;" d="M250.624 567.552c0-18.688 12.48-31.104 31.04-31.104h466.688c18.816 0 31.168 12.416 31.168 31.104 0 18.624-12.352 31.104-31.168 31.104H281.664c-18.56 0-31.04-12.48-31.04-31.104zM406.144 772.928H624c24.832 0 43.456 24.896 43.456 55.936 0 31.104-18.624 56-49.664 56H406.144c-24.832-6.208-49.792-31.104-49.792-62.208 0-24.832 24.96-49.728 49.792-49.728zM748.288 424.448H281.664c-18.56 0-31.04-12.416-31.04-31.04 0-12.48 12.48-31.168 31.04-31.168h466.688c18.816 0 31.168 12.416 31.168 31.168 0 18.56-18.688 31.04-31.232 31.04zM854.272 847.488h-62.336c-18.624 0-37.312-12.352-37.312-24.832 0-18.624 18.688-37.376 37.312-37.376h62.336c37.184 0 62.208-24.896 62.208-62.208v-715.584c0-37.312-25.024-62.272-62.208-62.272H188.352c-37.376 0-80.832 24.96-80.832 62.272V723.136c0 37.312 24.832 62.208 62.208 62.208h80.832c18.688 0 24.896 18.752 24.896 37.376S263.104 847.488 250.624 847.488H169.728C82.496 847.488 45.248 791.552 45.248 723.136v-709.376c0-74.624 43.584-130.624 130.688-130.624h672c87.104 0 130.816 43.52 130.816 130.624V723.136c0 68.416-43.712 124.352-124.48 124.352zM748.288 237.696H281.664c-18.56 0-31.04-12.416-31.04-30.976 0-18.624 12.48-31.104 31.04-31.104h466.688c18.816 0 31.168 12.48 31.168 31.104 0 18.56-18.688 30.976-31.232 30.976z"  horiz-adv-x="1024" />

    
    <glyph glyph-name="jinri" unicode="&#58919;" d="M423.87 47.712c-4.749 0-9.304 1.887-12.663 5.246L230.81 233.355c-6.994 6.994-6.994 18.332 0 25.326s18.333 6.994 25.327 0L423.87 90.949l362.41 362.413c6.994 6.994 18.333 6.994 25.327 0 6.994-6.994 6.994-18.332 0-25.326L436.534 52.958a17.907 17.907 0 0 0-12.663-5.246zM888.03-66.605H136.407c-40.69 0-73.792 33.104-73.792 73.791V667.484c0 40.687 33.104 73.789 73.792 73.789h145.019c9.89 0 17.908-8.018 17.908-17.909s-8.017-17.909-17.908-17.909H136.407c-20.94 0-37.975-17.034-37.975-37.971v-660.298c0-20.939 17.035-37.973 37.975-37.973h751.62c20.94 0 37.974 17.034 37.974 37.973V356.897c0 9.891 8.018 17.91 17.91 17.91s17.908-8.019 17.908-17.91v-349.71c0-40.688-33.103-73.792-73.79-73.792zM626.742 706.09h-222.76c-9.891 0-17.909 8.018-17.909 17.909s8.018 17.908 17.909 17.908h222.76c9.891 0 17.91-8.018 17.91-17.908s-8.019-17.91-17.91-17.91z m317.856-169.521H79.836c-9.89 0-17.909 8.018-17.909 17.909s8.018 17.908 17.909 17.908h846.166v95.1c0 20.938-17.034 37.971-37.973 37.971H740.654c-9.89 0-17.908 8.018-17.908 17.91s8.018 17.908 17.908 17.908H888.03c40.688 0 73.79-33.103 73.79-73.79v-108.079c0.448-1.565 0.688-3.22 0.688-4.927 0-9.893-8.018-17.91-17.91-17.91z m-602.68 79.883c-35.484 0-64.353 28.869-64.353 64.354v87.4c0 35.484 28.869 64.352 64.353 64.352 35.483 0 64.351-28.868 64.351-64.352v-87.4c0.001-35.485-28.867-64.354-64.35-64.354z m0 180.289c-15.734 0-28.536-12.8-28.536-28.535v-87.4c0-15.735 12.801-28.537 28.536-28.537 15.734 0 28.534 12.802 28.534 28.537v87.4c0 15.735-12.8 28.535-28.534 28.535z m340.6-180.289c-35.485 0-64.354 28.869-64.354 64.354v87.4c0 35.484 28.869 64.352 64.354 64.352 35.482 0 64.35-28.868 64.35-64.352v-87.4c0-35.485-28.868-64.354-64.35-64.354z m0 180.289c-15.736 0-28.537-12.8-28.537-28.535v-87.4c0-15.735 12.801-28.537 28.537-28.537 15.733 0 28.533 12.802 28.533 28.537v87.4c0 15.735-12.8 28.535-28.533 28.535z m280.065-340.67c0-9.93-8.051-17.984-17.985-17.984-9.933 0-17.985 8.053-17.985 17.985 0 9.934 8.052 17.985 17.985 17.985 9.934 0.001 17.985-8.051 17.985-17.985"  horiz-adv-x="1024" />

    
    <glyph glyph-name="chusheng" unicode="&#58892;" d="M453.589333 670.549333c-8.533333 65.536-49.493333 96.426667-54.101333 99.797334-82.474667 58.538667-161.322667 52.778667-213.077333 37.546666-84.096-24.704-142.762667-86.741333-161.621334-133.802666-13.994667-34.688-21.973333-67.285333-24.149333-97.749334-3.157333-43.221333 5.589333-82.005333 25.941333-115.968 46.464-77.226667 140.842667-105.642667 186.922667-115.242666l-0.64-7.424c-16.170667-222.762667 194.730667-305.834667 276.394667-338.048 142.250667-56.021333 254.122667-64.896 332.629333-26.24 64 31.402667 81.194667 83.968 81.28 85.12h-0.085333c22.741333 48 24.661333 90.624 5.418666 126.506666l-1.92 3.413334c26.837333 0.512 50.176 5.205333 68.608 14.08 21.76 10.538667 37.034667 27.093333 44.032 47.786666l3.498667 13.098667c11.904 56.789333-30.464 87.594667-54.570667 96.128l-13.354666 1.024c-54.058667-10.026667-100.565333 15.488-119.594667 32.085333-85.290667 74.496-172.629333 73.514667-230.784 59.648 26.794667 48.853333 40.661333 99.797333 8.917333 134.4a95.658667 95.658667 0 0 1-73.045333 31.573334c-31.36-0.213333-64.426667-13.866667-94.762667-32.128 8.96 29.269333 11.562667 57.386667 8.064 84.394666z m-85.162666-217.514666c27.904 31.36 113.450667 112.768 172.416 113.152 13.994667 0.042667 24.832-4.608 34.133333-14.677334 11.818667-13.013333 2.517333-56.448-59.776-139.733333l-4.266667-8.661333c-24.789333-26.709333-37.248-57.557333-37.034666-91.050667 0.341333-100.309333 116.565333-189.226667 121.6-193.024a26.112 26.112 0 0 1 31.530666 41.557333c-28.032 21.290667-100.736 89.898667-100.949333 151.637334 0.042667 27.264 13.525333 50.474667 39.466667 70.442666a200.96 200.96 0 0 0 235.349333-29.312c31.061333-27.178667 89.6-54.570667 155.050667-45.525333 8.277333-4.437333 20.053333-14.72 15.872-33.92l-1.834667-6.613333c-1.578667-4.778667-5.205333-11.733333-17.408-17.706667-25.514667-12.288-70.570667-11.861333-121.770667 0.128-28.074667 11.818667-52.352 15.445333-54.229333 15.744a26.026667 26.026667 0 0 1-29.013333-19.328 25.685333 25.685333 0 0 1 16.554666-31.104c43.52-15.957333 93.781333-26.581333 146.090667-29.354667-76.885333 5.930667-57.642667-6.613333-47.658667-25.216 10.88-20.522667 8.832-47.274667-7.936-83.114666-0.469333-1.408-11.904-36.181333-57.301333-57.898667-44.544-21.290667-130.816-33.450667-288.896 28.757333-127.530667 50.218667-269.482667 131.456-240.085333 314.197334a27.562667 27.562667 0 0 1-4.992 20.053333 26.837333 26.837333 0 0 1-18.005334 10.069333c-1.194667 0.170667-126.250667 14.677333-174.250666 94.762667-25.898667 43.093333-25.088 99.242667 2.176 167.125333 14.378667 36.053333 64.128 84.48 127.914666 103.125334 40.618667 11.946667 102.741333 16.469333 168.021334-30.037334 0.298667-0.170667 26.965333-20.266667 32.597333-63.914666 1.024-8.32 1.365333-17.024 0.725333-25.898667-3.242667-44.970667-28.373333-96.554667-73.642666-150.741333a26.197333 26.197333 0 0 1 2.858666-36.522667 26.581333 26.581333 0 0 1 36.693334 2.602667z"  horiz-adv-x="1024" />

    
    <glyph glyph-name="business_line" unicode="&#58900;" d="M512 865.745c-267.636 0-481.745-214.109-481.745-481.745 0-249.018 195.491-458.473 439.855-481.745h479.418c25.6 0 48.873 20.945 48.873 48.873v435.2c-4.655 265.309-218.764 479.418-486.4 479.418zM935.564-11.636c0-16.291-13.964-30.255-30.255-30.255h-393.309c-235.055 2.327-423.564 190.836-423.564 425.891s188.509 423.564 423.564 423.564 423.564-188.509 423.564-423.564v-395.636zM418.909 481.745c0 58.182 46.545 76.8 95.418 76.8 58.182 0 95.418-23.273 102.4-86.109h58.182c-2.327 88.436-58.182 128-132.655 134.982v83.782h-44.218v-83.782c-69.818-6.982-134.982-46.545-134.982-128 0-162.909 269.964-81.455 269.964-204.8 0-62.836-55.855-81.455-107.055-81.455-62.836 0-116.364 27.927-116.364 102.4h-58.182c0-97.745 65.164-141.964 146.618-151.273v-83.782h44.218v81.455c72.145 4.655 146.618 44.218 146.618 130.327 0 179.2-269.964 100.073-269.964 209.455z"  horiz-adv-x="1024" />

    
    <glyph glyph-name="round_yue_fill" unicode="&#58997;" d="M255.1 605.3c-24.1 0-43.6 19.5-43.6 43.6v122.8c0 24.1 19.5 43.6 43.6 43.6s43.6-19.5 43.6-43.6v-122.7c0.1-24.1-19.5-43.7-43.6-43.7zM669.3 605.3c-24.1 0-43.6 19.5-43.6 43.6v122.8c0 24.1 19.5 43.6 43.6 43.6s43.6-19.5 43.6-43.6v-122.7c0.1-24.1-19.5-43.7-43.6-43.7zM844.2 710.3h-91.9v-53.3c0-45.8-37.2-83-83-83s-83 37.2-83 83v53.3h-248.2v-53.3c0-45.8-37.2-83-83-83s-83 37.2-83 83v53.3h-91.9c-27.2 0-49.2-22-49.2-49.2v-692.5c0-27.2 22-49.2 49.2-49.2h764c27.2 0 49.2 22 49.2 49.2v692.5c0.1 27.2-22 49.2-49.2 49.2zM817-6.6c0-15-12.2-27.2-27.2-27.2h-655.2c-15 0-27.2 12.2-27.2 27.2v499.3c0 15 12.2 27.2 27.2 27.2h655.3c15 0 27.2-12.2 27.2-27.2v-499.3zM628.1 100.6v278.4c0.5 22-8.6 31.6-23.6 33.3h-233.5c-17.2-1.3-26.4-9.9-27.7-25.7v-119.3c0-58.4-3.9-101.7-11.8-129.8-5.9-20.9-16.4-40.9-31.5-59.9-2.5-3.2-7.5-28.9 1.3-35.7 8.8-6.7 27.4-2.1 34.8 9.3 21.1 32.4 34.4 65.8 39.9 100.2 1.5 7.5 10.9 8 10.9 8h191.5c6.6 0.3 9.9-3.4 9.4-11.8v-40.5c1.1-22.5-10.7-33.1-35.4-32-18.6 0-34.5 0.3-47.8 0.8-6 0.2-13.8-10.5-12.6-15.8 0-14.8 9-25.4 23.1-25.4 21 0.2 37.4 0.7 49 1.6 43.8 0.2 65.1 21.6 64 64.3zM587.7 203.8c0-4.4-3.6-8-8-8h-187.9c-4.4 0-8 3.6-8 8v54.8c0 4.4 3.6 8 8 8h187.9c4.4 0 8-3.6 8-8v-54.8zM587.7 312.5c0-4.4-3.6-8-8-8h-187.9c-4.4 0-8 3.6-8 8v54.8c0 4.4 3.6 8 8 8h187.9c4.4 0 8-3.6 8-8v-54.8z"  horiz-adv-x="1024" />

    
    <glyph glyph-name="jin_fill" unicode="&#59001;" d="M303.1 605.3c-24.1 0-43.6 19.5-43.6 43.6v122.8c0 24.1 19.5 43.6 43.6 43.6s43.6-19.5 43.6-43.6v-122.7c0.1-24.1-19.5-43.7-43.6-43.7zM717.3 605.3c-24.1 0-43.6 19.5-43.6 43.6v122.8c0 24.1 19.5 43.6 43.6 43.6s43.6-19.5 43.6-43.6v-122.7c0.1-24.1-19.5-43.7-43.6-43.7zM892.2 710.3h-91.9v-53.3c0-45.8-37.2-83-83-83s-83 37.2-83 83v53.3h-248.2v-53.3c0-45.8-37.2-83-83-83s-83 37.2-83 83v53.3h-91.9c-27.2 0-49.2-22-49.2-49.2v-692.5c0-27.2 22-49.2 49.2-49.2h764c27.2 0 49.2 22 49.2 49.2v692.5c0.1 27.2-22 49.2-49.2 49.2zM865-6.6c0-15-12.2-27.2-27.2-27.2h-655.2c-15 0-27.2 12.2-27.2 27.2v499.3c0 15 12.2 27.2 27.2 27.2h655.3c15 0 27.2-12.2 27.2-27.2v-499.3zM709 288.3s-132 69.5-173 132.5l5.9 9.5s5.3 6.5-6.9 7c0 0-27.3 2.9-31.7 3.2-6.6 0.4-9.9-5.7-11.1-7.5-11.3-17.4-75.9-111.2-178.2-149.7 0 0-9-6-4.5-17 0 0 5-21 33.5-13.5 0 0 93.5 45.5 170 137 0 0 78.5-101 155.5-129.5 3.9-2.3 33-3.8 40.5 8.5 1.1 2.2 6.5 11 0 19.5zM538.1 240c9 7.4 10.3 20.7 2.9 29.7l-28.8 35c-7.4 9-20.7 10.3-29.7 2.9s-10.3-20.7-2.9-29.7l28.8-35c7.4-9 20.7-10.3 29.7-2.9zM643.2 211.8h-275.2c-7.7 0-14-6.3-14-14v-9c0-7.7 6.3-14 14-14h232.5l-106.9-106.9c-5.5-5.5-5.5-14.3 0-19.8l6.4-6.4c5.5-5.5 14.3-5.5 19.8 0l139.8 139.8c8.9 8.9 2.7 30.3-16.4 30.3z"  horiz-adv-x="1024" />

    
    <glyph glyph-name="ziyuan" unicode="&#58921;" d="M459.377778 239.502222a13.937778 13.937778 0 0 1-4.266667-9.671111v-41.244444A59.448889 59.448889 0 0 0 407.893333 128 56.888889 56.888889 0 0 0 341.333333 184.888889v44.657778a14.222222 14.222222 0 0 1-4.266666 9.955555 85.333333 85.333333 0 0 0-24.177778 74.24 85.674667 85.674667 0 0 0 170.666667-15.075555 85.333333 85.333333 0 0 0-24.177778-59.164445zM739.555556 497.777778H199.111111a28.444444 28.444444 0 0 0-28.444444 28.444444v78.506667a232.106667 232.106667 0 0 0 191.431111 231.537778A227.555556 227.555556 0 0 0 625.777778 611.555556a28.444444 28.444444 0 0 1 56.888889 0 284.444444 284.444444 0 0 1-568.888889 0v-85.333334a28.444444 28.444444 0 0 0-28.444445-28.444444H56.888889a56.888889 56.888889 0 0 1-56.888889-56.888889v-455.111111a56.888889 56.888889 0 0 1 56.888889-56.888889h682.666667a56.888889 56.888889 0 0 1 56.888888 56.888889V440.888889a56.888889 56.888889 0 0 1-56.888888 56.888889z m0-483.555556a28.444444 28.444444 0 0 0-28.444445-28.444444H85.333333a28.444444 28.444444 0 0 0-28.444444 28.444444V412.444444a28.444444 28.444444 0 0 0 28.444444 28.444445h625.777778a28.444444 28.444444 0 0 0 28.444445-28.444445z"  horiz-adv-x="1084" />

    
    <glyph glyph-name="tupian" unicode="&#58972;" d="M511.68 785.6h400.896c45.056 0 82.048-29.824 91.52-73.6 1.472-6.848 2.112-13.952 2.112-20.992 0.128-204.672 0.128-409.408 0.064-614.144-0.064-53.504-40.448-94.4-93.888-94.4-266.88-0.128-533.76-0.128-800.64 0-53.44 0-93.952 40.896-93.952 94.336V691.008c0 54.144 40.64 94.592 94.912 94.592h398.976m0.704-61.632H283.712l-170.368 0.064a32.768 32.768 0 0 1-27.072-11.904c-5.824-7.104-6.656-15.296-6.656-24.128v-607.808c0-2.432 0-4.736 0.128-6.976 0.512-9.792 5.12-17.408 12.928-23.232 6.848-5.056 14.912-5.824 23.168-5.824 243.136 0.128 486.336 0.128 729.408 0.128 22.016 0 44.032 0 65.984-0.128a32.64 32.64 0 0 1 22.016 7.296c8.704 7.36 11.328 17.024 11.328 28.032V687.232c0 24.768-11.904 36.608-36.416 36.672l-395.776 0.064m0 0zM781.312 383.808c-20.608 0-41.344 0.384-62.08-0.128-35.456-0.896-65.472-14.848-92.608-37.12-20.224-16.64-40.64-33.344-62.272-48a216.32 216.32 0 0 0-92.096-36.224 153.024 153.024 0 0 0-22.336-1.728c-28.16-0.256-56.384-0.704-84.544 0a129.344 129.344 0 0 1-67.776-17.728 182.976 182.976 0 0 1-44.672-34.88c-19.328-20.8-39.04-41.28-58.88-61.568a30.656 30.656 0 0 0-43.264-1.088 30.272 30.272 0 0 0-1.856 42.752c25.344 26.816 50.368 54.144 77.312 79.168a198.656 198.656 0 0 0 135.552 54.976c27.328 0.128 54.656 0.512 81.984-0.128 19.968-0.384 38.464 4.032 56.384 12.16a263.936 263.936 0 0 1 71.104 46.08c27.904 25.792 58.56 47.232 95.936 56.96a238.08 238.08 0 0 0 52.8 8.192c42.944 1.216 85.888 0.576 128.768 0.384 13.632 0 23.872-6.208 29.376-18.88a29.312 29.312 0 0 0-5.504-32.768 30.72 30.72 0 0 0-24.64-10.176h-66.688v-0.256m0 0zM326.656 600.192c34.24 0 61.952-27.84 61.824-61.888a61.824 61.824 0 0 0-123.648 0.064 61.76 61.76 0 0 0 61.824 61.824m0 0z"  horiz-adv-x="1024" />

    
    <glyph glyph-name="xinzengkehu" unicode="&#58965;" d="M742.038 103.533h254.675c15.064 0 27.287-12.223 27.287-27.287s-12.223-27.286-27.287-27.286H742.038c-15.065 0-27.287 12.222-27.287 27.286s12.222 27.287 27.287 27.287zM896.663 203.584v-254.676c0-15.064-12.223-27.287-27.287-27.287s-27.287 12.223-27.287 27.287V203.584c0 15.064 12.223 27.286 27.287 27.286s27.287-12.222 27.287-27.286zM105.2-58.713c0 217.117 178.101 393.109 397.794 393.109 96.095 0 184.228-33.668 252.983-89.721a375.241 375.241 0 0 0 69.688 28.822c-48.466 45.982-106.961 81.721-171.934 103.658 80.114 49.658 133.393 137.703 133.393 238.051C787.124 770.283 659.908 896 502.994 896 346.081 896 218.866 770.283 218.866 615.208c0-100.348 53.278-188.394 133.393-238.051-183.383-61.92-315.25-233.668-315.25-435.869 0-3.752 0.054-7.494 0.144-11.225h68.219c-0.106 3.73-0.172 7.47-0.172 11.224z m174.543 673.921c0 121.839 99.947 220.622 223.251 220.622 123.307 0 223.254-98.782 223.254-220.622 0-105.945-75.555-194.421-176.321-215.725a477.192 477.192 0 0 1-93.863 0c-100.765 21.304-176.321 109.78-176.321 215.725z"  horiz-adv-x="1024" />

    
    <glyph glyph-name="jiazai" unicode="&#58914;" d="M737.088 59.456c9.088-15.36 3.968-35.84-11.904-44.48-15.616-9.088-35.392-3.712-44.224 11.904-9.536 15.36-3.968 35.392 11.392 44.48C708.48 80.384 728 74.816 737.088 59.456L737.088 59.456zM544.96-9.984L544.96-9.984c0-17.728-14.656-32.576-33.088-32.576-17.728 0-32.576 14.464-32.576 32.576l0 22.848c0 18.176 14.912 32.64 32.576 32.64 18.176 0 33.088-14.464 33.088-32.64L544.96-9.984 544.96-9.984zM343.744 26.816L343.744 26.816c-9.28-16.064-29.312-21.184-44.736-12.096-15.808 8.896-21.44 28.864-12.096 44.736l24.256 42.432c9.344 15.616 29.376 20.992 45.184 12.096 15.36-9.088 20.992-29.376 11.648-44.736L343.744 26.816 343.744 26.816zM187.648 158.656L187.648 158.656c-15.808-8.832-36.096-3.52-44.736 12.096-9.28 15.36-3.968 35.648 11.648 44.736l65.216 37.76c15.616 8.64 35.84 3.776 44.736-12.096 8.832-15.36 3.456-35.648-12.096-44.736L187.648 158.656 187.648 158.656zM118.272 351.296L118.272 351.296c-18.176 0-32.576 14.656-32.576 32.576 0 18.176 14.4 32.832 32.576 32.832l101.568 0c18.176 0 32.576-14.656 32.576-32.576 0-18.176-14.4-32.832-32.576-32.832L118.272 351.296 118.272 351.296zM154.624 552.768L154.624 552.768C138.752 561.6 133.632 581.632 142.976 597.248c8.64 15.808 28.864 21.184 44.736 12.096L298.048 545.28c15.616-8.896 20.736-28.864 12.096-44.288C300.864 485.184 280.832 480.064 265.472 488.896L154.624 552.768 154.624 552.768zM286.912 708.8L286.912 708.8l76.864-133.44c9.344-15.616 29.376-21.184 44.928-11.904C424.32 572.288 429.44 592.576 420.352 608.192L343.232 741.376C334.4 756.8 314.368 762.368 299.008 753.28 283.136 744.192 278.016 724.16 286.912 708.8L286.912 708.8zM479.296 777.728L479.296 777.728c0 17.728 14.912 32.832 32.576 32.832 18.176 0 33.088-14.72 33.088-32.832L544.96 624c0-18.176-14.656-32.832-33.088-33.088-17.728 0-32.576 14.4-32.576 33.088L479.296 777.728 479.296 777.728zM680.512 741.376L680.512 741.376c9.344 15.808 29.12 20.992 44.736 12.096 15.808-8.832 21.44-28.864 12.096-44.736l-77.056-133.44C651.584 559.744 631.104 554.176 615.552 563.2 599.936 572.288 594.816 592.576 603.648 608.192L680.512 741.376 680.512 741.376zM837.056 609.344L837.056 609.344l-133.696-77.056c-15.616-8.832-20.992-28.864-12.096-44.736 9.28-15.36 29.312-20.48 44.736-11.904l133.696 77.056c15.36 8.832 20.992 28.864 11.648 44.48C872.448 613.056 852.352 618.688 837.056 609.344L837.056 609.344zM905.728 416.704L905.728 416.704c18.368 0 32.832-14.656 32.576-32.832 0-17.92-14.208-32.576-32.576-32.576l-153.92 0c-17.728 0-32.64 14.656-32.64 32.832 0 17.92 14.912 32.576 32.64 32.576L905.728 416.704 905.728 416.704z"  horiz-adv-x="1024" />

    
    <glyph glyph-name="yingerglyph_" unicode="&#59076;" d="M234.666667 320v-256c0-104.533333 87.466667-192 192-192h170.666666c64 0 119.466667 29.866667 153.6 78.933333l-482.133333 384c-12.8 12.8-34.133333 2.133333-34.133333-14.933333zM755.2 328.533333l-192-153.6c-10.666667-8.533333-10.666667-25.6 0-34.133333l204.8-164.266667c12.8 25.6 21.333333 55.466667 21.333333 87.466667V311.466667c0 17.066667-21.333333 27.733333-34.133333 17.066666zM789.333333 646.4c-4.266667 0-10.666667 0-14.933333-2.133333-36.266667 104.533333-132.266667 181.333333-247.466667 187.733333V896h-32v-64c-115.2-6.4-209.066667-81.066667-245.333333-185.6-4.266667 0-10.666667 2.133333-14.933333 2.133333-51.2 0-91.733333-40.533333-91.733334-91.733333s40.533333-91.733333 91.733334-91.733333c4.266667 0 10.666667 0 14.933333 2.133333C288 356.266667 390.4 277.333333 512 277.333333s224 78.933333 262.4 185.6c4.266667 0 10.666667-2.133333 14.933333-2.133333 51.2 0 91.733333 40.533333 91.733334 91.733333s-40.533333 93.866667-91.733334 93.866667z m-100.266666-115.2c-36.266667-61.866667-104.533333-102.4-177.066667-102.4s-140.8 38.4-177.066667 102.4c-4.266667 8.533333-2.133333 17.066667 6.4 21.333333 8.533333 4.266667 17.066667 2.133333 21.333334-6.4 29.866667-53.333333 87.466667-85.333333 149.333333-85.333333s117.333333 32 149.333333 85.333333c4.266667 8.533333 14.933333 10.666667 21.333334 6.4 6.4-4.266667 10.666667-14.933333 6.4-21.333333z"  horiz-adv-x="1024" />

    
    <glyph glyph-name="baojiadan" unicode="&#59138;" d="M755.2-128c-147.2 0-268.8 121.6-268.8 268.8s121.6 268.8 268.8 268.8c147.2 0 268.8-121.6 268.8-268.8 0-147.2-121.6-268.8-268.8-268.8z m0 473.6c-115.2 0-204.8-89.6-211.2-198.4S640-64 748.8-64h6.4c115.2 0 204.8 96 198.4 211.2 6.4 102.4-83.2 192-198.4 198.4z m57.6-204.8h51.2v-38.4h-70.4l-12.8-19.2v-6.4h83.2v-38.4h-83.2v-64h-51.2v64h-83.2v38.4h83.2v12.8l-12.8 19.2h-70.4v38.4h51.2l-44.8 70.4c-6.4 12.8-12.8 25.6-25.6 32h57.6c0-6.4 6.4-19.2 12.8-32l51.2-83.2 51.2 83.2c6.4 12.8 12.8 25.6 12.8 32h57.6c-6.4-12.8-12.8-19.2-25.6-32l-32-76.8z m-640 121.6h224c19.2 0 32-12.8 32-32 0-12.8-12.8-25.6-32-32H172.8c-19.2 0-32 12.8-32 32 6.4 19.2 19.2 32 32 32z m-32 358.4c0 19.2 12.8 32 32 32h512c19.2 0 32-12.8 32-32s-12.8-32-32-32h-512c-12.8 0-32 12.8-32 32z m358.4-217.6H172.8c-19.2 0-32 12.8-32 32s12.8 32 32 32h326.4c19.2 0 32-12.8 32-32s-12.8-32-32-32z m332.8 64c-12.8 0-25.6 6.4-25.6 19.2V793.6c0 25.6-19.2 38.4-38.4 38.4H102.4c-25.6 0-38.4-12.8-38.4-38.4v-800c0-25.6 19.2-38.4 38.4-38.4h371.2c12.8-6.4 19.2-12.8 19.2-25.6s-6.4-25.6-19.2-25.6H83.2c-44.8 0-83.2 38.4-83.2 83.2V812.8C0 857.6 38.4 896 83.2 896h697.6c44.8 0 83.2-38.4 83.2-83.2v-326.4c-12.8-12.8-19.2-19.2-32-19.2z"  horiz-adv-x="1024" />

    
    <glyph glyph-name="shangxiajiantou" unicode="&#58884;" d="M701.44 266.24l-194.56-235.52L307.2 266.24h394.24zM307.2 302.08h394.24c15.36 0 25.6-10.24 30.72-20.48 5.12-15.36 5.12-30.72-5.12-40.96l-199.68-235.52c-10.24-15.36-35.84-15.36-46.08 0l-194.56 230.4c-10.24 5.12-15.36 15.36-15.36 30.72 5.12 15.36 20.48 35.84 35.84 35.84z m322.56-76.8H384l122.88-143.36 122.88 143.36zM701.44 394.24L501.76 624.64 307.2 394.24h394.24zM307.2 358.4h394.24c15.36 0 25.6 10.24 30.72 20.48 5.12 15.36 5.12 30.72-5.12 40.96l-199.68 235.52c-10.24 15.36-35.84 15.36-46.08 0L286.72 419.84c-10.24-5.12-15.36-15.36-15.36-25.6 0-20.48 15.36-35.84 35.84-35.84z m317.44 71.68H378.88l122.88 143.36 122.88-143.36z"  horiz-adv-x="1024" />

    
    <glyph glyph-name="zhousui" unicode="&#58917;" d="M868.82022 60.54826c-25.52842-1.600451-55.422264 6.544043-55.422264 6.544043-21.719674 7.670703-40.940434-1.786693-40.940434-1.786692-31.648814-18.733667-83.667561-19.880793-83.667562-19.880793-121.469516 0.911766-108.790752 55.42431-108.790751 55.42431s-68.3896-5.951549-104.388489 18.86772c-33.806967-53.939493-54.277184-50.837852-54.277184-50.837852-11.904121 0-19.154245-10.42135-19.154246-10.42135-7.807826-13.20065-15.664771-12.847609-25.428135-12.96529h-0.825808l-0.236384 0.065492a576.990177 576.990177 0 0 1-39.051411 1.348717c-12.797467 0-25.41074-0.404206-37.954427-1.297552-0.725524-0.11768-1.433652-0.186242-2.090615-0.186242-8.801457 0-16.017812 7.148817-16.017812 15.951297 0 0.369414 0.067538 0.775666 0.067539 1.147127 0 0-2.798742 55.506175 82.553181 39.623439 0 0-8.700149 108.554368 71.408353 202.168466-29.15297-16.480346-61.291948-28.02324-97.239672-28.023241-53.332672 0-101.70845 21.177322-137.116891 55.583947-21.735024 21.067828-35.308157 50.406017-35.308157 82.957386 0 15.420201 3.035126 30.114878 8.531304 43.562145 3.321652 8.211009 5.227048 17.139356 5.227048 26.547633 0 8.271384-0.539282 12.966313-3.406586 21.482267-2.360767 8.455579-3.624551 17.443277-3.624551 26.65815 0 15.428388 3.50687 29.996175 9.82988 42.971697l0.354064 1.189082c9.290597 19.339464 21.532409 37.019125 36.066427 52.497654h-0.067539c13.691837 16.128329-2.798742 22.021549-2.798742 22.02155 2.731204 4.224208 10.539031 4.814656 10.53903 4.814655 26.54047 1.197268 49.690726 20.410865 49.690726 20.410866-9.745968-1.475608-27.955702 21.37175-27.955702 21.37175 37.601386-11.609409 71.290673-8.15268 83.902922-6.197142 1.483794 0.303922 3.035126 0.548492 4.51892 0.783852l0.724501 0.177032-0.135077-0.059352c11.263531 1.837858 22.813588 2.858094 34.582633 2.858094 71.779813 0 135.161353-35.948747 172.897816-90.706884 0 0 39.387056-66.358337 18.851346-146.820904 0 0-11.652388-49.269124-55.204299-97.189529 16.708544-7.133468 35.172057-11.120268 54.495148-11.120269 11.602246 0 22.932292 1.432629 33.689287 4.105505a136.549979 136.549979 0 0 0 33.267684 4.105504c74.089415 0 134.201491-59.807131 134.201492-133.667325 0-34.870182-13.386892-66.655096-35.408441-90.462315 0 0 15.595186 1.786693 22.390963-3.390213 0 0 11.060917 42.020022 56.773028 12.613272 45.711088-29.457916 72.065316-38.983873 77.005838-46.706765 2.90005-4.586458 6.238075-9.105379 6.238074-15.007809-0.050142-11.665691-9.578146-20.399609-21.296025-21.125133zM376.281457 45.424818h-0.354064 0.471744-0.11768z m61.831231 473.139947c-21.178345-1.189082 16.001439-4.51892 17.97335-45.171805 2.984984-60.162218-39.152718-67.007113-17.97335-67.007114 21.194718 0 49.285496 24.102954 49.285496 70.640874 0.051165 30.940686-17.148565 43.325761-49.285496 41.538045z"  horiz-adv-x="1024" />

    
    <glyph glyph-name="yonghu" unicode="&#58954;" d="M822.2 210.942c-9.527 9.583-24.95 9.583-34.47 0-9.493-9.576-9.493-25.13 0.028-34.704 73.664-74.142 114.227-172.7 114.227-277.525 0-13.557 10.899-24.532 24.375-24.532s24.373 10.975 24.373 24.532c-0.001 117.929-45.65 228.819-128.534 312.229zM512 879.52c-161.29 0-292.488-132.042-292.488-294.365 0-115.785 66.762-216.145 163.57-264.188-67.746-20.858-129.812-58.214-181.303-110.046-82.882-83.39-128.512-194.28-128.512-312.215 0-13.557 10.899-24.525 24.375-24.525 13.474 0 24.373 10.975 24.373 24.525 0 104.831 40.563 203.383 114.235 277.532 70.99 71.47 164.587 111.96 264.577 114.785 3.708-0.139 7.43-0.233 11.172-0.233 161.29 0 292.489 132.042 292.489 294.366C804.488 747.478 673.289 879.52 512 879.52z m3.941-539.62a23.95 23.95 0 0 1-3.988 0.356c-3.701 0-7.397-0.048-11.083-0.138-129.24 5.875-232.61 113.535-232.61 245.037 0 135.257 109.346 245.301 243.74 245.301s243.741-110.045 243.741-245.3c0-133.929-107.223-243.125-239.8-245.257z m0 0"  horiz-adv-x="1024" />

    
    <glyph glyph-name="uc_jingyingfenxi" unicode="&#58908;" d="M176.70144 496.76288a21.62688 21.62688 0 0 0-5.7344 0.8192L19.2512 539.93472C10.69056 542.3104 3.8912 549.888 1.39264 559.63648a32.1536 32.1536 0 0 0 5.7344 27.8528 22.40512 22.40512 0 0 0 23.51104 8.192l142.00832-39.69024 233.92256 164.16768a21.54496 21.54496 0 0 0 23.10144 1.39264l231.95648-127.09888 281.43616 254.23872c10.73152 9.66656 26.13248 7.3728 34.44736-5.12 8.31488-12.53376 6.3488-30.5152-4.38272-40.18176l-293.2736-264.92928a21.74976 21.74976 0 0 0-25.51808-3.2768L420.6592 663.18336 189.35808 500.89984c-3.80928-2.70336-8.192-4.096-12.65664-4.096zM958.09536-96.50176H24.9856a22.9376 22.9376 0 0 0-17.36704 8.3968 31.25248 31.25248 0 0 0-7.20896 20.23424V372.65408c0 8.68352 3.35872 16.87552 9.13408 22.3232a21.95456 21.95456 0 0 0 20.60288 5.69344l142.25408-35.84 234.20928 164.33152a21.54496 21.54496 0 0 0 23.10144 1.39264l231.95648-127.05792 281.43616 254.19776a21.74976 21.74976 0 0 0 25.8048 3.03104c8.43776-4.79232 13.76256-14.7456 13.80352-25.68192v-702.8736a31.25248 31.25248 0 0 0-7.20896-20.2752 22.9376 22.9376 0 0 0-17.36704-8.3968zM49.47968-39.19872h884.08064V576.63488l-253.7472-229.21216a21.74976 21.74976 0 0 0-25.47712-3.2768l-233.6768 128.04096-231.30112-162.28352a21.62688 21.62688 0 0 0-17.8176-3.4816l-122.0608 30.76096v-376.4224z"  horiz-adv-x="1024" />

    
    </font>
</defs>
</svg>
